<?xml version="1.0" encoding="UTF-8" standalone="no"?>
<!DOCTYPE svg PUBLIC "-//W3C//DTD SVG 1.1//EN"
 "http://www.w3.org/Graphics/SVG/1.1/DTD/svg11.dtd">
<!-- Generated by graphviz version 2.43.0 (0)
 -->
<!-- Title: SensorBase Pages: 1 -->
<svg width="224pt" height="82pt"
 viewBox="0.00 0.00 223.50 82.00" xmlns="http://www.w3.org/2000/svg" xmlns:xlink="http://www.w3.org/1999/xlink">
<g id="graph0" class="graph" transform="scale(1 1) rotate(0) translate(4 78)">
<title>SensorBase</title>
<!-- Node1 -->
<g id="Node000001" class="node">
<title>Node1</title>
<g id="a_Node000001"><a xlink:title="Clase abstracta que define la interfaz para todos los sensores.">
<polygon fill="#999999" stroke="#666666" points="138,-74 64,-74 64,-55 138,-55 138,-74"/>
<text text-anchor="middle" x="101" y="-62" font-family="Helvetica,sans-Serif" font-size="10.00">SensorBase</text>
</a>
</g>
</g>
<!-- Node2 -->
<g id="Node000002" class="node">
<title>Node2</title>
<g id="a_Node000002"><a xlink:href="classSensorPresion.html" target="_top" xlink:title="Sensor especializado en lecturas de presión (entero)">
<polygon fill="white" stroke="#666666" points="86,-19 0,-19 0,0 86,0 86,-19"/>
<text text-anchor="middle" x="43" y="-7" font-family="Helvetica,sans-Serif" font-size="10.00">SensorPresion</text>
</a>
</g>
</g>
<!-- Node1&#45;&gt;Node2 -->
<g id="edge1_Node000001_Node000002" class="edge">
<title>Node1&#45;&gt;Node2</title>
<g id="a_edge1_Node000001_Node000002"><a xlink:title=" ">
<path fill="none" stroke="#63b8ff" d="M84.09,-48.04C73.8,-38.64 61.03,-26.98 52.49,-19.17"/>
<polygon fill="#63b8ff" stroke="#63b8ff" points="81.94,-50.82 91.68,-54.98 86.66,-45.66 81.94,-50.82"/>
</a>
</g>
</g>
<!-- Node3 -->
<g id="Node000003" class="node">
<title>Node3</title>
<g id="a_Node000003"><a xlink:href="classSensorTemperatura.html" target="_top" xlink:title="Sensor especializado en lecturas de temperatura (punto flotante)">
<polygon fill="white" stroke="#666666" points="215.5,-19 104.5,-19 104.5,0 215.5,0 215.5,-19"/>
<text text-anchor="middle" x="160" y="-7" font-family="Helvetica,sans-Serif" font-size="10.00">SensorTemperatura</text>
</a>
</g>
</g>
<!-- Node1&#45;&gt;Node3 -->
<g id="edge2_Node000001_Node000003" class="edge">
<title>Node1&#45;&gt;Node3</title>
<g id="a_edge2_Node000001_Node000003"><a xlink:title=" ">
<path fill="none" stroke="#63b8ff" d="M118.2,-48.04C128.67,-38.64 141.65,-26.98 150.35,-19.17"/>
<polygon fill="#63b8ff" stroke="#63b8ff" points="115.58,-45.7 110.48,-54.98 120.26,-50.91 115.58,-45.7"/>
</a>
</g>
</g>
</g>
</svg>
