<?xml version="1.0" encoding="UTF-8" standalone="no"?>
<!DOCTYPE svg PUBLIC "-//W3C//DTD SVG 1.1//EN"
 "http://www.w3.org/Graphics/SVG/1.1/DTD/svg11.dtd">
<!-- Generated by graphviz version 2.43.0 (0)
 -->
<!-- Title: SensorTemperatura::procesarLectura Pages: 1 -->
<svg width="435pt" height="177pt"
 viewBox="0.00 0.00 435.00 177.00" xmlns="http://www.w3.org/2000/svg" xmlns:xlink="http://www.w3.org/1999/xlink">

<svg id="main" version="1.1" xmlns="http://www.w3.org/2000/svg" xmlns:xlink="http://www.w3.org/1999/xlink" xml:space="preserve" onload="init(evt)">
<style type="text/css"><![CDATA[
.node, .edge {opacity: 0.7;}
.node.selected, .edge.selected {opacity: 1;}
.edge:hover path { stroke: red; }
.edge:hover polygon { stroke: red; fill: red; }
]]></style>
<script type="application/ecmascript" xlink:href="svg.min.js"/>
<svg id="graph" class="graph">
<g id="graph0" class="graph" transform="scale(1 1) rotate(0) translate(4 173)">
<title>SensorTemperatura::procesarLectura</title>
<!-- Node1 -->
<g id="Node000001" class="node">
<title>Node1</title>
<g id="a_Node000001"><a xlink:title="Implementación del procesamiento específico para temperatura.">
<polygon fill="#999999" stroke="#666666" points="117,-99.5 0,-99.5 0,-69.5 117,-69.5 117,-99.5"/>
<text text-anchor="start" x="8" y="-87.5" font-family="Helvetica,sans-Serif" font-size="10.00">SensorTemperatura::</text>
<text text-anchor="middle" x="58.5" y="-76.5" font-family="Helvetica,sans-Serif" font-size="10.00">procesarLectura</text>
</a>
</g>
</g>
<!-- Node2 -->
<g id="Node000002" class="node">
<title>Node2</title>
<g id="a_Node000002"><a xlink:href="classListaSensor.html#a9cd368481187ad8a4faf79db7810086b" target="_top" xlink:title="Calcula el promedio de todos los elementos.">
<polygon fill="white" stroke="#666666" points="317,-169 153,-169 153,-150 317,-150 317,-169"/>
<text text-anchor="middle" x="235" y="-157" font-family="Helvetica,sans-Serif" font-size="10.00">ListaSensor::calcularPromedio</text>
</a>
</g>
</g>
<!-- Node1&#45;&gt;Node2 -->
<g id="edge1_Node000001_Node000002" class="edge">
<title>Node1&#45;&gt;Node2</title>
<g id="a_edge1_Node000001_Node000002"><a xlink:title=" ">
<path fill="none" stroke="#63b8ff" d="M79.99,-99.73C98.26,-112.63 126.2,-130.7 153,-141.5 158.18,-143.59 163.64,-145.45 169.19,-147.12"/>
<polygon fill="#63b8ff" stroke="#63b8ff" points="168.65,-150.6 179.22,-149.91 170.53,-143.86 168.65,-150.6"/>
</a>
</g>
</g>
<!-- Node3 -->
<g id="Node000003" class="node">
<title>Node3</title>
<g id="a_Node000003"><a xlink:href="classListaSensor.html#a91249a76a5046cdd31c22a653e9a2573" target="_top" xlink:title="Encuentra y elimina el valor más bajo de la lista.">
<polygon fill="white" stroke="#666666" points="310,-132 160,-132 160,-113 310,-113 310,-132"/>
<text text-anchor="middle" x="235" y="-120" font-family="Helvetica,sans-Serif" font-size="10.00">ListaSensor::eliminarMenor</text>
</a>
</g>
</g>
<!-- Node1&#45;&gt;Node3 -->
<g id="edge2_Node000001_Node000003" class="edge">
<title>Node1&#45;&gt;Node3</title>
<g id="a_edge2_Node000001_Node000003"><a xlink:title=" ">
<path fill="none" stroke="#63b8ff" d="M117.12,-97.05C137.5,-101.49 160.33,-106.46 180.37,-110.82"/>
<polygon fill="#63b8ff" stroke="#63b8ff" points="179.75,-114.27 190.26,-112.98 181.24,-107.43 179.75,-114.27"/>
</a>
</g>
</g>
<!-- Node4 -->
<g id="Node000004" class="node">
<title>Node4</title>
<g id="a_Node000004"><a xlink:href="structNodo.html#a96da8b61d6884126bb04fced32542df9" target="_top" xlink:title="Constructor del nodo.">
<polygon fill="white" stroke="#666666" points="427,-113 353,-113 353,-94 427,-94 427,-113"/>
<text text-anchor="middle" x="390" y="-101" font-family="Helvetica,sans-Serif" font-size="10.00">Nodo::Nodo</text>
</a>
</g>
</g>
<!-- Node1&#45;&gt;Node4 -->
<g id="edge5_Node000001_Node000004" class="edge">
<title>Node1&#45;&gt;Node4</title>
<g id="a_edge5_Node000001_Node000004"><a xlink:title=" ">
<path fill="none" stroke="#63b8ff" d="M117.27,-87.83C181.35,-91.53 283.45,-97.41 342.56,-100.82"/>
<polygon fill="#63b8ff" stroke="#63b8ff" points="342.54,-104.33 352.73,-101.41 342.94,-97.34 342.54,-104.33"/>
</a>
</g>
</g>
<!-- Node5 -->
<g id="Node000005" class="node">
<title>Node5</title>
<g id="a_Node000005"><a xlink:href="classListaSensor.html#a2dd75ef08cf9a41dc12886b45aa0571e" target="_top" xlink:title="Verifica si la lista está vacía.">
<polygon fill="white" stroke="#666666" points="298,-56 172,-56 172,-37 298,-37 298,-56"/>
<text text-anchor="middle" x="235" y="-44" font-family="Helvetica,sans-Serif" font-size="10.00">ListaSensor::estaVacia</text>
</a>
</g>
</g>
<!-- Node1&#45;&gt;Node5 -->
<g id="edge4_Node000001_Node000005" class="edge">
<title>Node1&#45;&gt;Node5</title>
<g id="a_edge4_Node000001_Node000005"><a xlink:title=" ">
<path fill="none" stroke="#63b8ff" d="M117.12,-71.95C137.5,-67.51 160.33,-62.54 180.37,-58.18"/>
<polygon fill="#63b8ff" stroke="#63b8ff" points="181.24,-61.57 190.26,-56.02 179.75,-54.73 181.24,-61.57"/>
</a>
</g>
</g>
<!-- Node6 -->
<g id="Node000006" class="node">
<title>Node6</title>
<g id="a_Node000006"><a xlink:href="classListaSensor.html#a137572f36a807fa11ee9be16eb806f66" target="_top" xlink:title="Obtiene el tamaño actual de la lista.">
<polygon fill="white" stroke="#666666" points="314,-19 156,-19 156,0 314,0 314,-19"/>
<text text-anchor="middle" x="235" y="-7" font-family="Helvetica,sans-Serif" font-size="10.00">ListaSensor::obtenerTamanio</text>
</a>
</g>
</g>
<!-- Node1&#45;&gt;Node6 -->
<g id="edge6_Node000001_Node000006" class="edge">
<title>Node1&#45;&gt;Node6</title>
<g id="a_edge6_Node000001_Node000006"><a xlink:title=" ">
<path fill="none" stroke="#63b8ff" d="M80.42,-69.38C98.75,-56.79 126.52,-39.23 153,-28.5 159.3,-25.95 166.01,-23.69 172.78,-21.71"/>
<polygon fill="#63b8ff" stroke="#63b8ff" points="173.97,-25.01 182.7,-19 172.13,-18.26 173.97,-25.01"/>
</a>
</g>
</g>
<!-- Node3&#45;&gt;Node4 -->
<g id="edge3_Node000003_Node000004" class="edge">
<title>Node3&#45;&gt;Node4</title>
<g id="a_edge3_Node000003_Node000004"><a xlink:title=" ">
<path fill="none" stroke="#63b8ff" d="M310.26,-113.28C321.34,-111.9 332.48,-110.52 342.75,-109.24"/>
<polygon fill="#63b8ff" stroke="#63b8ff" points="343.21,-112.71 352.7,-108.01 342.35,-105.77 343.21,-112.71"/>
</a>
</g>
</g>
</g>
</svg>
</svg>

<style type='text/css'>
<![CDATA[
[data-mouse-over-selected='false'] { opacity: 0.7; }
[data-mouse-over-selected='true']  { opacity: 1.0; }
]]>
</style>
<script type="application/ecmascript"><![CDATA[
document.addEventListener('DOMContentLoaded', (event) => {
  highlightEdges();
  highlightAdjacentNodes();
});
]]></script>
</svg>
