<?xml version="1.0" encoding="UTF-8" standalone="no"?>
<!DOCTYPE svg PUBLIC "-//W3C//DTD SVG 1.1//EN"
 "http://www.w3.org/Graphics/SVG/1.1/DTD/svg11.dtd">
<!-- Generated by graphviz version 2.43.0 (0)
 -->
<!-- Title: SensorPresion::procesarLectura Pages: 1 -->
<svg width="378pt" height="138pt"
 viewBox="0.00 0.00 378.00 138.00" xmlns="http://www.w3.org/2000/svg" xmlns:xlink="http://www.w3.org/1999/xlink">

<svg id="main" version="1.1" xmlns="http://www.w3.org/2000/svg" xmlns:xlink="http://www.w3.org/1999/xlink" xml:space="preserve" onload="init(evt)">
<style type="text/css"><![CDATA[
.node, .edge {opacity: 0.7;}
.node.selected, .edge.selected {opacity: 1;}
.edge:hover path { stroke: red; }
.edge:hover polygon { stroke: red; fill: red; }
]]></style>
<script type="application/ecmascript" xlink:href="svg.min.js"/>
<svg id="graph" class="graph">
<g id="graph0" class="graph" transform="scale(1 1) rotate(0) translate(4 134)">
<title>SensorPresion::procesarLectura</title>
<!-- Node1 -->
<g id="Node000001" class="node">
<title>Node1</title>
<g id="a_Node000001"><a xlink:title="Implementación del procesamiento específico para presión.">
<polygon fill="#999999" stroke="#666666" points="170,-74 0,-74 0,-55 170,-55 170,-74"/>
<text text-anchor="middle" x="85" y="-62" font-family="Helvetica,sans-Serif" font-size="10.00">SensorPresion::procesarLectura</text>
</a>
</g>
</g>
<!-- Node2 -->
<g id="Node000002" class="node">
<title>Node2</title>
<g id="a_Node000002"><a xlink:href="classListaSensor.html#a9cd368481187ad8a4faf79db7810086b" target="_top" xlink:title="Calcula el promedio de todos los elementos.">
<polygon fill="white" stroke="#666666" points="370,-130 206,-130 206,-111 370,-111 370,-130"/>
<text text-anchor="middle" x="288" y="-118" font-family="Helvetica,sans-Serif" font-size="10.00">ListaSensor::calcularPromedio</text>
</a>
</g>
</g>
<!-- Node1&#45;&gt;Node2 -->
<g id="edge1_Node000001_Node000002" class="edge">
<title>Node1&#45;&gt;Node2</title>
<g id="a_edge1_Node000001_Node000002"><a xlink:title=" ">
<path fill="none" stroke="#63b8ff" d="M113.92,-74.11C138.11,-82.25 174.13,-93.93 206,-102.5 213.91,-104.63 222.31,-106.7 230.58,-108.63"/>
<polygon fill="#63b8ff" stroke="#63b8ff" points="230.04,-112.1 240.57,-110.92 231.6,-105.28 230.04,-112.1"/>
</a>
</g>
</g>
<!-- Node3 -->
<g id="Node000003" class="node">
<title>Node3</title>
<g id="a_Node000003"><a xlink:href="classListaSensor.html#a2dd75ef08cf9a41dc12886b45aa0571e" target="_top" xlink:title="Verifica si la lista está vacía.">
<polygon fill="white" stroke="#666666" points="351,-93 225,-93 225,-74 351,-74 351,-93"/>
<text text-anchor="middle" x="288" y="-81" font-family="Helvetica,sans-Serif" font-size="10.00">ListaSensor::estaVacia</text>
</a>
</g>
</g>
<!-- Node1&#45;&gt;Node3 -->
<g id="edge2_Node000001_Node000003" class="edge">
<title>Node1&#45;&gt;Node3</title>
<g id="a_edge2_Node000001_Node000003"><a xlink:title=" ">
<path fill="none" stroke="#63b8ff" d="M170.08,-72.45C184.88,-73.85 200.17,-75.29 214.62,-76.66"/>
<polygon fill="#63b8ff" stroke="#63b8ff" points="214.69,-80.18 224.97,-77.64 215.35,-73.21 214.69,-80.18"/>
</a>
</g>
</g>
<!-- Node4 -->
<g id="Node000004" class="node">
<title>Node4</title>
<g id="a_Node000004"><a xlink:href="structNodo.html#a96da8b61d6884126bb04fced32542df9" target="_top" xlink:title="Constructor del nodo.">
<polygon fill="white" stroke="#666666" points="325,-56 251,-56 251,-37 325,-37 325,-56"/>
<text text-anchor="middle" x="288" y="-44" font-family="Helvetica,sans-Serif" font-size="10.00">Nodo::Nodo</text>
</a>
</g>
</g>
<!-- Node1&#45;&gt;Node4 -->
<g id="edge3_Node000001_Node000004" class="edge">
<title>Node1&#45;&gt;Node4</title>
<g id="a_edge3_Node000001_Node000004"><a xlink:title=" ">
<path fill="none" stroke="#63b8ff" d="M170.08,-56.97C194.19,-54.81 219.6,-52.54 240.55,-50.66"/>
<polygon fill="#63b8ff" stroke="#63b8ff" points="241.11,-54.12 250.75,-49.75 240.48,-47.15 241.11,-54.12"/>
</a>
</g>
</g>
<!-- Node5 -->
<g id="Node000005" class="node">
<title>Node5</title>
<g id="a_Node000005"><a xlink:href="classListaSensor.html#a137572f36a807fa11ee9be16eb806f66" target="_top" xlink:title="Obtiene el tamaño actual de la lista.">
<polygon fill="white" stroke="#666666" points="367,-19 209,-19 209,0 367,0 367,-19"/>
<text text-anchor="middle" x="288" y="-7" font-family="Helvetica,sans-Serif" font-size="10.00">ListaSensor::obtenerTamanio</text>
</a>
</g>
</g>
<!-- Node1&#45;&gt;Node5 -->
<g id="edge4_Node000001_Node000005" class="edge">
<title>Node1&#45;&gt;Node5</title>
<g id="a_edge4_Node000001_Node000005"><a xlink:title=" ">
<path fill="none" stroke="#63b8ff" d="M115.94,-54.96C140.13,-47.39 175.11,-36.75 206,-28.5 215.02,-26.09 224.65,-23.69 234,-21.44"/>
<polygon fill="#63b8ff" stroke="#63b8ff" points="235.08,-24.78 244,-19.07 233.46,-17.97 235.08,-24.78"/>
</a>
</g>
</g>
</g>
</svg>
</svg>

<style type='text/css'>
<![CDATA[
[data-mouse-over-selected='false'] { opacity: 0.7; }
[data-mouse-over-selected='true']  { opacity: 1.0; }
]]>
</style>
<script type="application/ecmascript"><![CDATA[
document.addEventListener('DOMContentLoaded', (event) => {
  highlightEdges();
  highlightAdjacentNodes();
});
]]></script>
</svg>
