<?xml version="1.0" encoding="UTF-8" standalone="no"?>
<!DOCTYPE svg PUBLIC "-//W3C//DTD SVG 1.1//EN"
 "http://www.w3.org/Graphics/SVG/1.1/DTD/svg11.dtd">
<!-- Generated by graphviz version 2.43.0 (0)
 -->
<!-- Title: SistemaGestion Pages: 1 -->
<svg width="162pt" height="159pt"
 viewBox="0.00 0.00 162.00 159.00" xmlns="http://www.w3.org/2000/svg" xmlns:xlink="http://www.w3.org/1999/xlink">
<g id="graph0" class="graph" transform="scale(1 1) rotate(0) translate(4 155)">
<title>SistemaGestion</title>
<!-- Node1 -->
<g id="Node000001" class="node">
<title>Node1</title>
<g id="a_Node000001"><a xlink:title="Gestor principal del sistema IoT de sensores.">
<polygon fill="#999999" stroke="#666666" points="94,-19 0,-19 0,0 94,0 94,-19"/>
<text text-anchor="middle" x="47" y="-7" font-family="Helvetica,sans-Serif" font-size="10.00">SistemaGestion</text>
</a>
</g>
</g>
<!-- Node2 -->
<g id="Node000002" class="node">
<title>Node2</title>
<g id="a_Node000002"><a xlink:href="structNodoGestion.html" target="_top" xlink:title="Nodo para la lista de gestión polimórfica (no genérica)">
<polygon fill="white" stroke="#666666" points="87,-85 7,-85 7,-66 87,-66 87,-85"/>
<text text-anchor="middle" x="47" y="-73" font-family="Helvetica,sans-Serif" font-size="10.00">NodoGestion</text>
</a>
</g>
</g>
<!-- Node2&#45;&gt;Node1 -->
<g id="edge1_Node000001_Node000002" class="edge">
<title>Node2&#45;&gt;Node1</title>
<g id="a_edge1_Node000001_Node000002"><a xlink:title=" ">
<path fill="none" stroke="#9a32cd" stroke-dasharray="5,2" d="M47,-55.58C47,-43.63 47,-28.72 47,-19.41"/>
<polygon fill="#9a32cd" stroke="#9a32cd" points="43.5,-55.87 47,-65.87 50.5,-55.87 43.5,-55.87"/>
</a>
</g>
<text text-anchor="middle" x="66" y="-40" font-family="Helvetica,sans-Serif" font-size="10.00" fill="grey"> cabeza</text>
</g>
<!-- Node2&#45;&gt;Node2 -->
<g id="edge3_Node000002_Node000002" class="edge">
<title>Node2&#45;&gt;Node2</title>
<g id="a_edge3_Node000002_Node000002"><a xlink:title=" ">
<path fill="none" stroke="#9a32cd" stroke-dasharray="5,2" d="M97.26,-80.32C102,-79.33 105,-77.73 105,-75.5 105,-71.94 97.33,-69.96 87.12,-69.57"/>
<polygon fill="#9a32cd" stroke="#9a32cd" points="96.68,-76.86 87.12,-81.43 97.44,-83.82 96.68,-76.86"/>
</a>
</g>
<text text-anchor="middle" x="129.5" y="-73" font-family="Helvetica,sans-Serif" font-size="10.00" fill="grey"> siguiente</text>
</g>
<!-- Node3 -->
<g id="Node000003" class="node">
<title>Node3</title>
<g id="a_Node000003"><a xlink:href="classSensorBase.html" target="_top" xlink:title="Clase abstracta que define la interfaz para todos los sensores.">
<polygon fill="white" stroke="#666666" points="84,-151 10,-151 10,-132 84,-132 84,-151"/>
<text text-anchor="middle" x="47" y="-139" font-family="Helvetica,sans-Serif" font-size="10.00">SensorBase</text>
</a>
</g>
</g>
<!-- Node3&#45;&gt;Node2 -->
<g id="edge2_Node000002_Node000003" class="edge">
<title>Node3&#45;&gt;Node2</title>
<g id="a_edge2_Node000002_Node000003"><a xlink:title=" ">
<path fill="none" stroke="#9a32cd" stroke-dasharray="5,2" d="M47,-121.58C47,-109.63 47,-94.72 47,-85.41"/>
<polygon fill="#9a32cd" stroke="#9a32cd" points="43.5,-121.87 47,-131.87 50.5,-121.87 43.5,-121.87"/>
</a>
</g>
<text text-anchor="middle" x="65" y="-106" font-family="Helvetica,sans-Serif" font-size="10.00" fill="grey"> sensor</text>
</g>
</g>
</svg>
