<?xml version="1.0" encoding="UTF-8" standalone="no"?>
<!DOCTYPE svg PUBLIC "-//W3C//DTD SVG 1.1//EN"
 "http://www.w3.org/Graphics/SVG/1.1/DTD/svg11.dtd">
<!-- Generated by graphviz version 2.43.0 (0)
 -->
<!-- Title: SensorPresion::imprimirInfo Pages: 1 -->
<svg width="360pt" height="138pt"
 viewBox="0.00 0.00 360.00 138.00" xmlns="http://www.w3.org/2000/svg" xmlns:xlink="http://www.w3.org/1999/xlink">

<svg id="main" version="1.1" xmlns="http://www.w3.org/2000/svg" xmlns:xlink="http://www.w3.org/1999/xlink" xml:space="preserve" onload="init(evt)">
<style type="text/css"><![CDATA[
.node, .edge {opacity: 0.7;}
.node.selected, .edge.selected {opacity: 1;}
.edge:hover path { stroke: red; }
.edge:hover polygon { stroke: red; fill: red; }
]]></style>
<script type="application/ecmascript" xlink:href="svg.min.js"/>
<svg id="graph" class="graph">
<g id="graph0" class="graph" transform="scale(1 1) rotate(0) translate(4 134)">
<title>SensorPresion::imprimirInfo</title>
<!-- Node1 -->
<g id="Node000001" class="node">
<title>Node1</title>
<g id="a_Node000001"><a xlink:title="Implementación de impresión de información del sensor.">
<polygon fill="#999999" stroke="#666666" points="152,-74 0,-74 0,-55 152,-55 152,-74"/>
<text text-anchor="middle" x="76" y="-62" font-family="Helvetica,sans-Serif" font-size="10.00">SensorPresion::imprimirInfo</text>
</a>
</g>
</g>
<!-- Node2 -->
<g id="Node000002" class="node">
<title>Node2</title>
<g id="a_Node000002"><a xlink:href="classListaSensor.html#a9cd368481187ad8a4faf79db7810086b" target="_top" xlink:title="Calcula el promedio de todos los elementos.">
<polygon fill="white" stroke="#666666" points="352,-130 188,-130 188,-111 352,-111 352,-130"/>
<text text-anchor="middle" x="270" y="-118" font-family="Helvetica,sans-Serif" font-size="10.00">ListaSensor::calcularPromedio</text>
</a>
</g>
</g>
<!-- Node1&#45;&gt;Node2 -->
<g id="edge1_Node000001_Node000002" class="edge">
<title>Node1&#45;&gt;Node2</title>
<g id="a_edge1_Node000001_Node000002"><a xlink:title=" ">
<path fill="none" stroke="#63b8ff" d="M102.32,-74.07C124.65,-82.29 158.2,-94.12 188,-102.5 195.69,-104.66 203.85,-106.73 211.91,-108.65"/>
<polygon fill="#63b8ff" stroke="#63b8ff" points="211.13,-112.06 221.66,-110.91 212.71,-105.24 211.13,-112.06"/>
</a>
</g>
</g>
<!-- Node3 -->
<g id="Node000003" class="node">
<title>Node3</title>
<g id="a_Node000003"><a xlink:href="classListaSensor.html#a2dd75ef08cf9a41dc12886b45aa0571e" target="_top" xlink:title="Verifica si la lista está vacía.">
<polygon fill="white" stroke="#666666" points="333,-93 207,-93 207,-74 333,-74 333,-93"/>
<text text-anchor="middle" x="270" y="-81" font-family="Helvetica,sans-Serif" font-size="10.00">ListaSensor::estaVacia</text>
</a>
</g>
</g>
<!-- Node1&#45;&gt;Node3 -->
<g id="edge2_Node000001_Node000003" class="edge">
<title>Node1&#45;&gt;Node3</title>
<g id="a_edge2_Node000001_Node000003"><a xlink:title=" ">
<path fill="none" stroke="#63b8ff" d="M152.06,-71.93C166.76,-73.38 182.14,-74.9 196.75,-76.35"/>
<polygon fill="#63b8ff" stroke="#63b8ff" points="196.42,-79.83 206.71,-77.34 197.11,-72.87 196.42,-79.83"/>
</a>
</g>
</g>
<!-- Node4 -->
<g id="Node000004" class="node">
<title>Node4</title>
<g id="a_Node000004"><a xlink:href="structNodo.html#a96da8b61d6884126bb04fced32542df9" target="_top" xlink:title="Constructor del nodo.">
<polygon fill="white" stroke="#666666" points="307,-56 233,-56 233,-37 307,-37 307,-56"/>
<text text-anchor="middle" x="270" y="-44" font-family="Helvetica,sans-Serif" font-size="10.00">Nodo::Nodo</text>
</a>
</g>
</g>
<!-- Node1&#45;&gt;Node4 -->
<g id="edge3_Node000001_Node000004" class="edge">
<title>Node1&#45;&gt;Node4</title>
<g id="a_edge3_Node000001_Node000004"><a xlink:title=" ">
<path fill="none" stroke="#63b8ff" d="M152.06,-57.46C175.92,-55.23 201.6,-52.82 222.79,-50.83"/>
<polygon fill="#63b8ff" stroke="#63b8ff" points="223.18,-54.31 232.81,-49.89 222.53,-47.34 223.18,-54.31"/>
</a>
</g>
</g>
<!-- Node5 -->
<g id="Node000005" class="node">
<title>Node5</title>
<g id="a_Node000005"><a xlink:href="classListaSensor.html#a137572f36a807fa11ee9be16eb806f66" target="_top" xlink:title="Obtiene el tamaño actual de la lista.">
<polygon fill="white" stroke="#666666" points="349,-19 191,-19 191,0 349,0 349,-19"/>
<text text-anchor="middle" x="270" y="-7" font-family="Helvetica,sans-Serif" font-size="10.00">ListaSensor::obtenerTamanio</text>
</a>
</g>
</g>
<!-- Node1&#45;&gt;Node5 -->
<g id="edge4_Node000001_Node000005" class="edge">
<title>Node1&#45;&gt;Node5</title>
<g id="a_edge4_Node000001_Node000005"><a xlink:title=" ">
<path fill="none" stroke="#63b8ff" d="M104.18,-54.99C126.53,-47.33 159.12,-36.56 188,-28.5 196.79,-26.05 206.17,-23.65 215.32,-21.43"/>
<polygon fill="#63b8ff" stroke="#63b8ff" points="216.2,-24.82 225.11,-19.09 214.57,-18.01 216.2,-24.82"/>
</a>
</g>
</g>
</g>
</svg>
</svg>

<style type='text/css'>
<![CDATA[
[data-mouse-over-selected='false'] { opacity: 0.7; }
[data-mouse-over-selected='true']  { opacity: 1.0; }
]]>
</style>
<script type="application/ecmascript"><![CDATA[
document.addEventListener('DOMContentLoaded', (event) => {
  highlightEdges();
  highlightAdjacentNodes();
});
]]></script>
</svg>
