<?xml version="1.0" encoding="UTF-8" standalone="no"?>
<!DOCTYPE svg PUBLIC "-//W3C//DTD SVG 1.1//EN"
 "http://www.w3.org/Graphics/SVG/1.1/DTD/svg11.dtd">
<!-- Generated by graphviz version 2.43.0 (0)
 -->
<!-- Title: ListaSensor::insertar Pages: 1 -->
<svg width="293pt" height="86pt"
 viewBox="0.00 0.00 293.00 86.00" xmlns="http://www.w3.org/2000/svg" xmlns:xlink="http://www.w3.org/1999/xlink">
<g id="graph0" class="graph" transform="scale(1 1) rotate(0) translate(4 82)">
<title>ListaSensor::insertar</title>
<!-- Node1 -->
<g id="Node000001" class="node">
<title>Node1</title>
<g id="a_Node000001"><a xlink:title="Inserta un elemento al final de la lista.">
<polygon fill="#999999" stroke="#666666" points="285,-48.5 169,-48.5 169,-29.5 285,-29.5 285,-48.5"/>
<text text-anchor="middle" x="227" y="-36.5" font-family="Helvetica,sans-Serif" font-size="10.00">ListaSensor::insertar</text>
</a>
</g>
</g>
<!-- Node2 -->
<g id="Node000002" class="node">
<title>Node2</title>
<g id="a_Node000002"><a xlink:href="classSensorTemperatura.html#a75a9d1899df3456b5df2b41b71551b62" target="_top" xlink:title="Registra una nueva lectura de temperatura.">
<polygon fill="white" stroke="#666666" points="125,-78 8,-78 8,-48 125,-48 125,-78"/>
<text text-anchor="start" x="16" y="-66" font-family="Helvetica,sans-Serif" font-size="10.00">SensorTemperatura::</text>
<text text-anchor="middle" x="66.5" y="-55" font-family="Helvetica,sans-Serif" font-size="10.00">registrarLectura</text>
</a>
</g>
</g>
<!-- Node1&#45;&gt;Node2 -->
<g id="edge1_Node000001_Node000002" class="edge">
<title>Node1&#45;&gt;Node2</title>
<g id="a_edge1_Node000001_Node000002"><a xlink:title=" ">
<path fill="none" stroke="#63b8ff" d="M158.66,-49.2C147.52,-50.88 136.05,-52.62 125.17,-54.27"/>
<polygon fill="#63b8ff" stroke="#63b8ff" points="159.41,-52.62 168.78,-47.66 158.37,-45.7 159.41,-52.62"/>
</a>
</g>
</g>
<!-- Node3 -->
<g id="Node000003" class="node">
<title>Node3</title>
<g id="a_Node000003"><a xlink:href="classSensorPresion.html#ac4950d8215389b85dd299872b76bc5c3" target="_top" xlink:title="Registra una nueva lectura de presión.">
<polygon fill="white" stroke="#666666" points="133,-30 0,-30 0,0 133,0 133,-30"/>
<text text-anchor="start" x="8" y="-18" font-family="Helvetica,sans-Serif" font-size="10.00">SensorPresion::registrar</text>
<text text-anchor="middle" x="66.5" y="-7" font-family="Helvetica,sans-Serif" font-size="10.00">Lectura</text>
</a>
</g>
</g>
<!-- Node1&#45;&gt;Node3 -->
<g id="edge2_Node000001_Node000003" class="edge">
<title>Node1&#45;&gt;Node3</title>
<g id="a_edge2_Node000001_Node000003"><a xlink:title=" ">
<path fill="none" stroke="#63b8ff" d="M158.64,-28.8C150.23,-27.53 141.64,-26.23 133.26,-24.96"/>
<polygon fill="#63b8ff" stroke="#63b8ff" points="158.37,-32.3 168.78,-30.34 159.41,-25.38 158.37,-32.3"/>
</a>
</g>
</g>
</g>
</svg>
