<?xml version="1.0" encoding="UTF-8" standalone="no"?>
<!DOCTYPE svg PUBLIC "-//W3C//DTD SVG 1.1//EN"
 "http://www.w3.org/Graphics/SVG/1.1/DTD/svg11.dtd">
<!-- Generated by graphviz version 2.43.0 (0)
 -->
<!-- Title: SensorPresion Pages: 1 -->
<svg width="271pt" height="225pt"
 viewBox="0.00 0.00 271.00 225.00" xmlns="http://www.w3.org/2000/svg" xmlns:xlink="http://www.w3.org/1999/xlink">
<g id="graph0" class="graph" transform="scale(1 1) rotate(0) translate(4 221)">
<title>SensorPresion</title>
<!-- Node1 -->
<g id="Node000001" class="node">
<title>Node1</title>
<g id="a_Node000001"><a xlink:title="Sensor especializado en lecturas de presión (entero)">
<polygon fill="#999999" stroke="#666666" points="122.5,-19 36.5,-19 36.5,0 122.5,0 122.5,-19"/>
<text text-anchor="middle" x="79.5" y="-7" font-family="Helvetica,sans-Serif" font-size="10.00">SensorPresion</text>
</a>
</g>
</g>
<!-- Node2 -->
<g id="Node000002" class="node">
<title>Node2</title>
<g id="a_Node000002"><a xlink:href="classSensorBase.html" target="_top" xlink:title="Clase abstracta que define la interfaz para todos los sensores.">
<polygon fill="white" stroke="#666666" points="81.5,-85 7.5,-85 7.5,-66 81.5,-66 81.5,-85"/>
<text text-anchor="middle" x="44.5" y="-73" font-family="Helvetica,sans-Serif" font-size="10.00">SensorBase</text>
</a>
</g>
</g>
<!-- Node2&#45;&gt;Node1 -->
<g id="edge1_Node000001_Node000002" class="edge">
<title>Node2&#45;&gt;Node1</title>
<g id="a_edge1_Node000001_Node000002"><a xlink:title=" ">
<path fill="none" stroke="#63b8ff" d="M54.04,-57.05C60.71,-44.86 69.33,-29.11 74.63,-19.41"/>
<polygon fill="#63b8ff" stroke="#63b8ff" points="50.95,-55.42 49.22,-65.87 57.09,-58.77 50.95,-55.42"/>
</a>
</g>
</g>
<!-- Node3 -->
<g id="Node000003" class="node">
<title>Node3</title>
<g id="a_Node000003"><a xlink:href="classListaSensor.html" target="_top" xlink:title=" ">
<polygon fill="white" stroke="#666666" points="207.5,-85 99.5,-85 99.5,-66 207.5,-66 207.5,-85"/>
<text text-anchor="middle" x="153.5" y="-73" font-family="Helvetica,sans-Serif" font-size="10.00">ListaSensor&lt; int &gt;</text>
</a>
</g>
</g>
<!-- Node3&#45;&gt;Node1 -->
<g id="edge2_Node000001_Node000003" class="edge">
<title>Node3&#45;&gt;Node1</title>
<g id="a_edge2_Node000001_Node000003"><a xlink:title=" ">
<path fill="none" stroke="#9a32cd" stroke-dasharray="5,2" d="M135.79,-59.18C121.42,-46.76 101.68,-29.68 89.8,-19.41"/>
<polygon fill="#9a32cd" stroke="#9a32cd" points="133.67,-61.97 143.52,-65.87 138.25,-56.68 133.67,-61.97"/>
</a>
</g>
<text text-anchor="middle" x="142" y="-40" font-family="Helvetica,sans-Serif" font-size="10.00" fill="grey"> historial</text>
</g>
<!-- Node4 -->
<g id="Node000004" class="node">
<title>Node4</title>
<g id="a_Node000004"><a xlink:href="structNodo.html" target="_top" xlink:title=" ">
<polygon fill="white" stroke="#666666" points="77,-151 0,-151 0,-132 77,-132 77,-151"/>
<text text-anchor="middle" x="38.5" y="-139" font-family="Helvetica,sans-Serif" font-size="10.00">Nodo&lt; int &gt;</text>
</a>
</g>
</g>
<!-- Node4&#45;&gt;Node3 -->
<g id="edge3_Node000003_Node000004" class="edge">
<title>Node4&#45;&gt;Node3</title>
<g id="a_edge3_Node000003_Node000004"><a xlink:title=" ">
<path fill="none" stroke="#9a32cd" stroke-dasharray="5,2" d="M63.01,-126.86C85.65,-114.26 118.61,-95.92 137.87,-85.2"/>
<polygon fill="#9a32cd" stroke="#9a32cd" points="61.05,-123.95 54.01,-131.87 64.45,-130.06 61.05,-123.95"/>
</a>
</g>
<text text-anchor="middle" x="122.5" y="-106" font-family="Helvetica,sans-Serif" font-size="10.00" fill="grey"> cabeza</text>
</g>
<!-- Node4&#45;&gt;Node4 -->
<g id="edge4_Node000004_Node000004" class="edge">
<title>Node4&#45;&gt;Node4</title>
<g id="a_edge4_Node000004_Node000004"><a xlink:title=" ">
<path fill="none" stroke="#9a32cd" stroke-dasharray="5,2" d="M87.22,-146.37C91.98,-145.39 95,-143.77 95,-141.5 95,-137.88 87.27,-135.89 77.06,-135.55"/>
<polygon fill="#9a32cd" stroke="#9a32cd" points="86.63,-142.91 77.06,-147.45 87.37,-149.88 86.63,-142.91"/>
</a>
</g>
<text text-anchor="middle" x="119.5" y="-139" font-family="Helvetica,sans-Serif" font-size="10.00" fill="grey"> siguiente</text>
</g>
<!-- Node5 -->
<g id="Node000005" class="node">
<title>Node5</title>
<g id="a_Node000005"><a xlink:href="structNodo.html" target="_top" xlink:title="Estructura de nodo genérico para lista enlazada.">
<polygon fill="white" stroke="#666666" points="74,-217 3,-217 3,-198 74,-198 74,-217"/>
<text text-anchor="middle" x="38.5" y="-205" font-family="Helvetica,sans-Serif" font-size="10.00">Nodo&lt; T &gt;</text>
</a>
</g>
</g>
<!-- Node5&#45;&gt;Node4 -->
<g id="edge5_Node000004_Node000005" class="edge">
<title>Node5&#45;&gt;Node4</title>
<g id="a_edge5_Node000004_Node000005"><a xlink:title=" ">
<path fill="none" stroke="orange" stroke-dasharray="5,2" d="M38.5,-187.58C38.5,-175.63 38.5,-160.72 38.5,-151.41"/>
<polygon fill="orange" stroke="orange" points="35,-187.87 38.5,-197.87 42,-187.87 35,-187.87"/>
</a>
</g>
<text text-anchor="middle" x="58" y="-172" font-family="Helvetica,sans-Serif" font-size="10.00" fill="grey"> &lt; int &gt;</text>
</g>
<!-- Node6 -->
<g id="Node000006" class="node">
<title>Node6</title>
<g id="a_Node000006"><a xlink:href="classListaSensor.html" target="_top" xlink:title="Lista Enlazada Simple Genérica para gestionar lecturas de sensores.">
<polygon fill="white" stroke="#666666" points="263,-151 162,-151 162,-132 263,-132 263,-151"/>
<text text-anchor="middle" x="212.5" y="-139" font-family="Helvetica,sans-Serif" font-size="10.00">ListaSensor&lt; T &gt;</text>
</a>
</g>
</g>
<!-- Node6&#45;&gt;Node3 -->
<g id="edge6_Node000003_Node000006" class="edge">
<title>Node6&#45;&gt;Node3</title>
<g id="a_edge6_Node000003_Node000006"><a xlink:title=" ">
<path fill="none" stroke="orange" stroke-dasharray="5,2" d="M197.73,-124.48C186.34,-112.12 171.01,-95.49 161.71,-85.41"/>
<polygon fill="orange" stroke="orange" points="195.19,-126.89 204.54,-131.87 200.34,-122.14 195.19,-126.89"/>
</a>
</g>
<text text-anchor="middle" x="206" y="-106" font-family="Helvetica,sans-Serif" font-size="10.00" fill="grey"> &lt; int &gt;</text>
</g>
</g>
</svg>
