<?xml version="1.0" encoding="UTF-8" standalone="no"?>
<!DOCTYPE svg PUBLIC "-//W3C//DTD SVG 1.1//EN"
 "http://www.w3.org/Graphics/SVG/1.1/DTD/svg11.dtd">
<!-- Generated by graphviz version 2.43.0 (0)
 -->
<!-- Title: SistemaGestion::~SistemaGestion Pages: 1 -->
<svg width="473pt" height="52pt"
 viewBox="0.00 0.00 473.00 51.50" xmlns="http://www.w3.org/2000/svg" xmlns:xlink="http://www.w3.org/1999/xlink">
<g id="graph0" class="graph" transform="scale(1 1) rotate(0) translate(4 47.5)">
<title>SistemaGestion::~SistemaGestion</title>
<!-- Node1 -->
<g id="Node000001" class="node">
<title>Node1</title>
<g id="a_Node000001"><a xlink:title="Destructor &#45; Libera en cascada todos los sensores y nodos.">
<polygon fill="#999999" stroke="#666666" points="148,-30 0,-30 0,0 148,0 148,-30"/>
<text text-anchor="start" x="8" y="-18" font-family="Helvetica,sans-Serif" font-size="10.00">SistemaGestion::~Sistema</text>
<text text-anchor="middle" x="74" y="-7" font-family="Helvetica,sans-Serif" font-size="10.00">Gestion</text>
</a>
</g>
</g>
<!-- Node2 -->
<g id="Node000002" class="node">
<title>Node2</title>
<g id="a_Node000002"><a xlink:href="classSistemaGestion.html#aa2380dd9f2a2cccfe1aa31c42848eb54" target="_top" xlink:title="Libera toda la memoria del sistema (llamado por el destructor)">
<polygon fill="white" stroke="#666666" points="355,-43.5 184,-43.5 184,-24.5 355,-24.5 355,-43.5"/>
<text text-anchor="middle" x="269.5" y="-31.5" font-family="Helvetica,sans-Serif" font-size="10.00">SistemaGestion::liberarSistema</text>
</a>
</g>
</g>
<!-- Node1&#45;&gt;Node2 -->
<g id="edge1_Node000001_Node000002" class="edge">
<title>Node1&#45;&gt;Node2</title>
<g id="a_edge1_Node000001_Node000002"><a xlink:title=" ">
<path fill="none" stroke="#63b8ff" d="M148.15,-22.18C156.54,-23.01 165.18,-23.85 173.79,-24.7"/>
<polygon fill="#63b8ff" stroke="#63b8ff" points="173.58,-28.2 183.88,-25.69 174.27,-21.23 173.58,-28.2"/>
</a>
</g>
</g>
<!-- Node3 -->
<g id="Node000003" class="node">
<title>Node3</title>
<g id="a_Node000003"><a xlink:href="structNodo.html#a96da8b61d6884126bb04fced32542df9" target="_top" xlink:title="Constructor del nodo.">
<polygon fill="white" stroke="#666666" points="465,-24.5 391,-24.5 391,-5.5 465,-5.5 465,-24.5"/>
<text text-anchor="middle" x="428" y="-12.5" font-family="Helvetica,sans-Serif" font-size="10.00">Nodo::Nodo</text>
</a>
</g>
</g>
<!-- Node1&#45;&gt;Node3 -->
<g id="edge3_Node000001_Node000003" class="edge">
<title>Node1&#45;&gt;Node3</title>
<g id="a_edge3_Node000001_Node000003"><a xlink:title=" ">
<path fill="none" stroke="#63b8ff" d="M148.36,-15C218.31,-15 321.5,-15 380.7,-15"/>
<polygon fill="#63b8ff" stroke="#63b8ff" points="380.87,-18.5 390.87,-15 380.87,-11.5 380.87,-18.5"/>
</a>
</g>
</g>
<!-- Node2&#45;&gt;Node3 -->
<g id="edge2_Node000002_Node000003" class="edge">
<title>Node2&#45;&gt;Node3</title>
<g id="a_edge2_Node000002_Node000003"><a xlink:title=" ">
<path fill="none" stroke="#63b8ff" d="M349.21,-24.44C360.06,-23.13 370.89,-21.81 380.88,-20.6"/>
<polygon fill="#63b8ff" stroke="#63b8ff" points="381.44,-24.06 390.95,-19.38 380.6,-17.11 381.44,-24.06"/>
</a>
</g>
</g>
</g>
</svg>
