<?xml version="1.0" encoding="UTF-8" standalone="no"?>
<!DOCTYPE svg PUBLIC "-//W3C//DTD SVG 1.1//EN"
 "http://www.w3.org/Graphics/SVG/1.1/DTD/svg11.dtd">
<!-- Generated by graphviz version 2.43.0 (0)
 -->
<!-- Title: SensorTemperatura::imprimirInfo Pages: 1 -->
<svg width="325pt" height="138pt"
 viewBox="0.00 0.00 325.00 138.00" xmlns="http://www.w3.org/2000/svg" xmlns:xlink="http://www.w3.org/1999/xlink">
<g id="graph0" class="graph" transform="scale(1 1) rotate(0) translate(4 134)">
<title>SensorTemperatura::imprimirInfo</title>
<!-- Node1 -->
<g id="Node000001" class="node">
<title>Node1</title>
<g id="a_Node000001"><a xlink:title="Implementación de impresión de información del sensor.">
<polygon fill="#999999" stroke="#666666" points="117,-79.5 0,-79.5 0,-49.5 117,-49.5 117,-79.5"/>
<text text-anchor="start" x="8" y="-67.5" font-family="Helvetica,sans-Serif" font-size="10.00">SensorTemperatura::</text>
<text text-anchor="middle" x="58.5" y="-56.5" font-family="Helvetica,sans-Serif" font-size="10.00">imprimirInfo</text>
</a>
</g>
</g>
<!-- Node2 -->
<g id="Node000002" class="node">
<title>Node2</title>
<g id="a_Node000002"><a xlink:href="classListaSensor.html#a9cd368481187ad8a4faf79db7810086b" target="_top" xlink:title="Calcula el promedio de todos los elementos.">
<polygon fill="white" stroke="#666666" points="317,-130 153,-130 153,-111 317,-111 317,-130"/>
<text text-anchor="middle" x="235" y="-118" font-family="Helvetica,sans-Serif" font-size="10.00">ListaSensor::calcularPromedio</text>
</a>
</g>
</g>
<!-- Node1&#45;&gt;Node2 -->
<g id="edge1_Node000001_Node000002" class="edge">
<title>Node1&#45;&gt;Node2</title>
<g id="a_edge1_Node000001_Node000002"><a xlink:title=" ">
<path fill="none" stroke="#63b8ff" d="M92.76,-79.6C110.4,-87.21 132.59,-96.13 153,-102.5 160.08,-104.71 167.58,-106.75 175.05,-108.62"/>
<polygon fill="#63b8ff" stroke="#63b8ff" points="174.28,-112.03 184.82,-110.96 175.91,-105.22 174.28,-112.03"/>
</a>
</g>
</g>
<!-- Node3 -->
<g id="Node000003" class="node">
<title>Node3</title>
<g id="a_Node000003"><a xlink:href="classListaSensor.html#a2dd75ef08cf9a41dc12886b45aa0571e" target="_top" xlink:title="Verifica si la lista está vacía.">
<polygon fill="white" stroke="#666666" points="298,-93 172,-93 172,-74 298,-74 298,-93"/>
<text text-anchor="middle" x="235" y="-81" font-family="Helvetica,sans-Serif" font-size="10.00">ListaSensor::estaVacia</text>
</a>
</g>
</g>
<!-- Node1&#45;&gt;Node3 -->
<g id="edge2_Node000001_Node000003" class="edge">
<title>Node1&#45;&gt;Node3</title>
<g id="a_edge2_Node000001_Node000003"><a xlink:title=" ">
<path fill="none" stroke="#63b8ff" d="M117.12,-70.77C131.4,-72.33 146.88,-74.01 161.75,-75.63"/>
<polygon fill="#63b8ff" stroke="#63b8ff" points="161.62,-79.14 171.94,-76.74 162.37,-72.18 161.62,-79.14"/>
</a>
</g>
</g>
<!-- Node4 -->
<g id="Node000004" class="node">
<title>Node4</title>
<g id="a_Node000004"><a xlink:href="structNodo.html#a96da8b61d6884126bb04fced32542df9" target="_top" xlink:title="Constructor del nodo.">
<polygon fill="white" stroke="#666666" points="272,-56 198,-56 198,-37 272,-37 272,-56"/>
<text text-anchor="middle" x="235" y="-44" font-family="Helvetica,sans-Serif" font-size="10.00">Nodo::Nodo</text>
</a>
</g>
</g>
<!-- Node1&#45;&gt;Node4 -->
<g id="edge3_Node000001_Node000004" class="edge">
<title>Node1&#45;&gt;Node4</title>
<g id="a_edge3_Node000001_Node000004"><a xlink:title=" ">
<path fill="none" stroke="#63b8ff" d="M117.12,-58.56C139.99,-56.2 165.93,-53.52 187.56,-51.29"/>
<polygon fill="#63b8ff" stroke="#63b8ff" points="188.21,-54.74 197.79,-50.23 187.49,-47.78 188.21,-54.74"/>
</a>
</g>
</g>
<!-- Node5 -->
<g id="Node000005" class="node">
<title>Node5</title>
<g id="a_Node000005"><a xlink:href="classListaSensor.html#a137572f36a807fa11ee9be16eb806f66" target="_top" xlink:title="Obtiene el tamaño actual de la lista.">
<polygon fill="white" stroke="#666666" points="314,-19 156,-19 156,0 314,0 314,-19"/>
<text text-anchor="middle" x="235" y="-7" font-family="Helvetica,sans-Serif" font-size="10.00">ListaSensor::obtenerTamanio</text>
</a>
</g>
</g>
<!-- Node1&#45;&gt;Node5 -->
<g id="edge4_Node000001_Node000005" class="edge">
<title>Node1&#45;&gt;Node5</title>
<g id="a_edge4_Node000001_Node000005"><a xlink:title=" ">
<path fill="none" stroke="#63b8ff" d="M95.06,-49.49C112.35,-42.53 133.55,-34.49 153,-28.5 161.14,-25.99 169.82,-23.63 178.37,-21.49"/>
<polygon fill="#63b8ff" stroke="#63b8ff" points="179.41,-24.83 188.29,-19.07 177.75,-18.03 179.41,-24.83"/>
</a>
</g>
</g>
</g>
</svg>
