<?xml version="1.0" encoding="UTF-8" standalone="no"?>
<!DOCTYPE svg PUBLIC "-//W3C//DTD SVG 1.1//EN"
 "http://www.w3.org/Graphics/SVG/1.1/DTD/svg11.dtd">
<!-- Generated by graphviz version 2.43.0 (0)
 -->
<!-- Title: SensorTemperatura Pages: 1 -->
<svg width="281pt" height="225pt"
 viewBox="0.00 0.00 280.50 225.00" xmlns="http://www.w3.org/2000/svg" xmlns:xlink="http://www.w3.org/1999/xlink">

<svg id="main" version="1.1" xmlns="http://www.w3.org/2000/svg" xmlns:xlink="http://www.w3.org/1999/xlink" xml:space="preserve" onload="init(evt)">
<style type="text/css"><![CDATA[
.node, .edge {opacity: 0.7;}
.node.selected, .edge.selected {opacity: 1;}
.edge:hover path { stroke: red; }
.edge:hover polygon { stroke: red; fill: red; }
]]></style>
<script type="application/ecmascript" xlink:href="svg.min.js"/>
<svg id="graph" class="graph">
<g id="graph0" class="graph" transform="scale(1 1) rotate(0) translate(4 221)">
<title>SensorTemperatura</title>
<!-- Node1 -->
<g id="Node000001" class="node">
<title>Node1</title>
<g id="a_Node000001"><a xlink:title="Sensor especializado en lecturas de temperatura (punto flotante)">
<polygon fill="#999999" stroke="#666666" points="119.5,-19 8.5,-19 8.5,0 119.5,0 119.5,-19"/>
<text text-anchor="middle" x="64" y="-7" font-family="Helvetica,sans-Serif" font-size="10.00">SensorTemperatura</text>
</a>
</g>
</g>
<!-- Node2 -->
<g id="Node000002" class="node">
<title>Node2</title>
<g id="a_Node000002"><a xlink:href="classSensorBase.html" target="_top" xlink:title="Clase abstracta que define la interfaz para todos los sensores.">
<polygon fill="white" stroke="#666666" points="85,-85 11,-85 11,-66 85,-66 85,-85"/>
<text text-anchor="middle" x="48" y="-73" font-family="Helvetica,sans-Serif" font-size="10.00">SensorBase</text>
</a>
</g>
</g>
<!-- Node2&#45;&gt;Node1 -->
<g id="edge1_Node000001_Node000002" class="edge">
<title>Node2&#45;&gt;Node1</title>
<g id="a_edge1_Node000001_Node000002"><a xlink:title=" ">
<path fill="none" stroke="#63b8ff" d="M52.64,-55.95C55.64,-43.93 59.42,-28.82 61.77,-19.41"/>
<polygon fill="#63b8ff" stroke="#63b8ff" points="49.19,-55.32 50.16,-65.87 55.98,-57.02 49.19,-55.32"/>
</a>
</g>
</g>
<!-- Node3 -->
<g id="Node000003" class="node">
<title>Node3</title>
<g id="a_Node000003"><a xlink:href="classListaSensor.html" target="_top" xlink:title=" ">
<polygon fill="white" stroke="#666666" points="220.5,-85 103.5,-85 103.5,-66 220.5,-66 220.5,-85"/>
<text text-anchor="middle" x="162" y="-73" font-family="Helvetica,sans-Serif" font-size="10.00">ListaSensor&lt; float &gt;</text>
</a>
</g>
</g>
<!-- Node3&#45;&gt;Node1 -->
<g id="edge2_Node000001_Node000003" class="edge">
<title>Node3&#45;&gt;Node1</title>
<g id="a_edge2_Node000001_Node000003"><a xlink:title=" ">
<path fill="none" stroke="#9a32cd" stroke-dasharray="5,2" d="M140.33,-60.35C121.07,-47.77 93.52,-29.78 77.32,-19.2"/>
<polygon fill="#9a32cd" stroke="#9a32cd" points="138.5,-63.33 148.78,-65.87 142.32,-57.47 138.5,-63.33"/>
</a>
</g>
<text text-anchor="middle" x="140.5" y="-40" font-family="Helvetica,sans-Serif" font-size="10.00" fill="grey"> historial</text>
</g>
<!-- Node4 -->
<g id="Node000004" class="node">
<title>Node4</title>
<g id="a_Node000004"><a xlink:href="structNodo.html" target="_top" xlink:title=" ">
<polygon fill="white" stroke="#666666" points="86,-151 0,-151 0,-132 86,-132 86,-151"/>
<text text-anchor="middle" x="43" y="-139" font-family="Helvetica,sans-Serif" font-size="10.00">Nodo&lt; float &gt;</text>
</a>
</g>
</g>
<!-- Node4&#45;&gt;Node3 -->
<g id="edge3_Node000003_Node000004" class="edge">
<title>Node4&#45;&gt;Node3</title>
<g id="a_edge3_Node000003_Node000004"><a xlink:title=" ">
<path fill="none" stroke="#9a32cd" stroke-dasharray="5,2" d="M68.05,-127.03C91.49,-114.42 125.8,-95.97 145.83,-85.2"/>
<polygon fill="#9a32cd" stroke="#9a32cd" points="66.2,-124.05 59.05,-131.87 69.51,-130.21 66.2,-124.05"/>
</a>
</g>
<text text-anchor="middle" x="129" y="-106" font-family="Helvetica,sans-Serif" font-size="10.00" fill="grey"> cabeza</text>
</g>
<!-- Node4&#45;&gt;Node4 -->
<g id="edge4_Node000004_Node000004" class="edge">
<title>Node4&#45;&gt;Node4</title>
<g id="a_edge4_Node000004_Node000004"><a xlink:title=" ">
<path fill="none" stroke="#9a32cd" stroke-dasharray="5,2" d="M96.25,-146.24C101.01,-145.25 104,-143.67 104,-141.5 104,-138.03 96.35,-136.07 86.04,-135.61"/>
<polygon fill="#9a32cd" stroke="#9a32cd" points="95.58,-142.8 86.04,-147.39 96.37,-149.75 95.58,-142.8"/>
</a>
</g>
<text text-anchor="middle" x="128.5" y="-139" font-family="Helvetica,sans-Serif" font-size="10.00" fill="grey"> siguiente</text>
</g>
<!-- Node5 -->
<g id="Node000005" class="node">
<title>Node5</title>
<g id="a_Node000005"><a xlink:href="structNodo.html" target="_top" xlink:title="Estructura de nodo genérico para lista enlazada.">
<polygon fill="white" stroke="#666666" points="78.5,-217 7.5,-217 7.5,-198 78.5,-198 78.5,-217"/>
<text text-anchor="middle" x="43" y="-205" font-family="Helvetica,sans-Serif" font-size="10.00">Nodo&lt; T &gt;</text>
</a>
</g>
</g>
<!-- Node5&#45;&gt;Node4 -->
<g id="edge5_Node000004_Node000005" class="edge">
<title>Node5&#45;&gt;Node4</title>
<g id="a_edge5_Node000004_Node000005"><a xlink:title=" ">
<path fill="none" stroke="orange" stroke-dasharray="5,2" d="M43,-187.58C43,-175.63 43,-160.72 43,-151.41"/>
<polygon fill="orange" stroke="orange" points="39.5,-187.87 43,-197.87 46.5,-187.87 39.5,-187.87"/>
</a>
</g>
<text text-anchor="middle" x="67" y="-172" font-family="Helvetica,sans-Serif" font-size="10.00" fill="grey"> &lt; float &gt;</text>
</g>
<!-- Node6 -->
<g id="Node000006" class="node">
<title>Node6</title>
<g id="a_Node000006"><a xlink:href="classListaSensor.html" target="_top" xlink:title="Lista Enlazada Simple Genérica para gestionar lecturas de sensores.">
<polygon fill="white" stroke="#666666" points="272.5,-151 171.5,-151 171.5,-132 272.5,-132 272.5,-151"/>
<text text-anchor="middle" x="222" y="-139" font-family="Helvetica,sans-Serif" font-size="10.00">ListaSensor&lt; T &gt;</text>
</a>
</g>
</g>
<!-- Node6&#45;&gt;Node3 -->
<g id="edge6_Node000003_Node000006" class="edge">
<title>Node6&#45;&gt;Node3</title>
<g id="a_edge6_Node000003_Node000006"><a xlink:title=" ">
<path fill="none" stroke="orange" stroke-dasharray="5,2" d="M206.98,-124.48C195.4,-112.12 179.8,-95.49 170.35,-85.41"/>
<polygon fill="orange" stroke="orange" points="204.52,-126.97 213.91,-131.87 209.62,-122.18 204.52,-126.97"/>
</a>
</g>
<text text-anchor="middle" x="219" y="-106" font-family="Helvetica,sans-Serif" font-size="10.00" fill="grey"> &lt; float &gt;</text>
</g>
</g>
</svg>
</svg>

<style type='text/css'>
<![CDATA[
[data-mouse-over-selected='false'] { opacity: 0.7; }
[data-mouse-over-selected='true']  { opacity: 1.0; }
]]>
</style>
<script type="application/ecmascript"><![CDATA[
document.addEventListener('DOMContentLoaded', (event) => {
  highlightEdges();
  highlightAdjacentNodes();
});
]]></script>
</svg>
