<?xml version="1.0" encoding="UTF-8" standalone="no"?>
<!DOCTYPE svg PUBLIC "-//W3C//DTD SVG 1.1//EN"
 "http://www.w3.org/Graphics/SVG/1.1/DTD/svg11.dtd">
<!-- Generated by graphviz version 2.43.0 (0)
 -->
<!-- Title: ListaSensor::estaVacia Pages: 1 -->
<svg width="340pt" height="162pt"
 viewBox="0.00 0.00 340.00 161.50" xmlns="http://www.w3.org/2000/svg" xmlns:xlink="http://www.w3.org/1999/xlink">

<svg id="main" version="1.1" xmlns="http://www.w3.org/2000/svg" xmlns:xlink="http://www.w3.org/1999/xlink" xml:space="preserve" onload="init(evt)">
<style type="text/css"><![CDATA[
.node, .edge {opacity: 0.7;}
.node.selected, .edge.selected {opacity: 1;}
.edge:hover path { stroke: red; }
.edge:hover polygon { stroke: red; fill: red; }
]]></style>
<script type="application/ecmascript" xlink:href="svg.min.js"/>
<svg id="graph" class="graph">
<g id="graph0" class="graph" transform="scale(1 1) rotate(0) translate(4 157.5)">
<title>ListaSensor::estaVacia</title>
<!-- Node1 -->
<g id="Node000001" class="node">
<title>Node1</title>
<g id="a_Node000001"><a xlink:title="Verifica si la lista está vacía.">
<polygon fill="#999999" stroke="#666666" points="332,-88.5 206,-88.5 206,-69.5 332,-69.5 332,-88.5"/>
<text text-anchor="middle" x="269" y="-76.5" font-family="Helvetica,sans-Serif" font-size="10.00">ListaSensor::estaVacia</text>
</a>
</g>
</g>
<!-- Node2 -->
<g id="Node000002" class="node">
<title>Node2</title>
<g id="a_Node000002"><a xlink:href="classSensorPresion.html#ad5181690dfb24946217e882606f04428" target="_top" xlink:title="Implementación de impresión de información del sensor.">
<polygon fill="white" stroke="#666666" points="161,-153.5 9,-153.5 9,-134.5 161,-134.5 161,-153.5"/>
<text text-anchor="middle" x="85" y="-141.5" font-family="Helvetica,sans-Serif" font-size="10.00">SensorPresion::imprimirInfo</text>
</a>
</g>
</g>
<!-- Node1&#45;&gt;Node2 -->
<g id="edge1_Node000001_Node000002" class="edge">
<title>Node1&#45;&gt;Node2</title>
<g id="a_edge1_Node000001_Node000002"><a xlink:title=" ">
<path fill="none" stroke="#63b8ff" d="M241.32,-93.45C221.98,-103.45 194.94,-116.44 170,-125 159.39,-128.64 147.79,-131.78 136.69,-134.4"/>
<polygon fill="#63b8ff" stroke="#63b8ff" points="243.19,-96.42 250.42,-88.68 239.94,-90.22 243.19,-96.42"/>
</a>
</g>
</g>
<!-- Node3 -->
<g id="Node000003" class="node">
<title>Node3</title>
<g id="a_Node000003"><a xlink:href="classSensorTemperatura.html#a95a263967c5f9a55da09be3b11c27c86" target="_top" xlink:title="Implementación de impresión de información del sensor.">
<polygon fill="white" stroke="#666666" points="143.5,-116 26.5,-116 26.5,-86 143.5,-86 143.5,-116"/>
<text text-anchor="start" x="34.5" y="-104" font-family="Helvetica,sans-Serif" font-size="10.00">SensorTemperatura::</text>
<text text-anchor="middle" x="85" y="-93" font-family="Helvetica,sans-Serif" font-size="10.00">imprimirInfo</text>
</a>
</g>
</g>
<!-- Node1&#45;&gt;Node3 -->
<g id="edge2_Node000001_Node000003" class="edge">
<title>Node1&#45;&gt;Node3</title>
<g id="a_edge2_Node000001_Node000003"><a xlink:title=" ">
<path fill="none" stroke="#63b8ff" d="M195.79,-87.73C178.44,-89.83 160.14,-92.04 143.56,-94.04"/>
<polygon fill="#63b8ff" stroke="#63b8ff" points="196.37,-91.18 205.87,-86.51 195.53,-84.24 196.37,-91.18"/>
</a>
</g>
</g>
<!-- Node4 -->
<g id="Node000004" class="node">
<title>Node4</title>
<g id="a_Node000004"><a xlink:href="classSensorPresion.html#aff696aceb5e619529f911311a35d3c76" target="_top" xlink:title="Implementación del procesamiento específico para presión.">
<polygon fill="white" stroke="#666666" points="170,-67.5 0,-67.5 0,-48.5 170,-48.5 170,-67.5"/>
<text text-anchor="middle" x="85" y="-55.5" font-family="Helvetica,sans-Serif" font-size="10.00">SensorPresion::procesarLectura</text>
</a>
</g>
</g>
<!-- Node1&#45;&gt;Node4 -->
<g id="edge3_Node000001_Node000004" class="edge">
<title>Node1&#45;&gt;Node4</title>
<g id="a_edge3_Node000001_Node000004"><a xlink:title=" ">
<path fill="none" stroke="#63b8ff" d="M195.84,-70.67C186.84,-69.64 177.58,-68.57 168.44,-67.51"/>
<polygon fill="#63b8ff" stroke="#63b8ff" points="195.54,-74.16 205.87,-71.83 196.34,-67.21 195.54,-74.16"/>
</a>
</g>
</g>
<!-- Node5 -->
<g id="Node000005" class="node">
<title>Node5</title>
<g id="a_Node000005"><a xlink:href="classSensorTemperatura.html#a36227dc500c6f8be7866cb0f396894b3" target="_top" xlink:title="Implementación del procesamiento específico para temperatura.">
<polygon fill="white" stroke="#666666" points="143.5,-30 26.5,-30 26.5,0 143.5,0 143.5,-30"/>
<text text-anchor="start" x="34.5" y="-18" font-family="Helvetica,sans-Serif" font-size="10.00">SensorTemperatura::</text>
<text text-anchor="middle" x="85" y="-7" font-family="Helvetica,sans-Serif" font-size="10.00">procesarLectura</text>
</a>
</g>
</g>
<!-- Node1&#45;&gt;Node5 -->
<g id="edge4_Node000001_Node000005" class="edge">
<title>Node1&#45;&gt;Node5</title>
<g id="a_edge4_Node000001_Node000005"><a xlink:title=" ">
<path fill="none" stroke="#63b8ff" d="M236.24,-65.53C217.19,-57.65 192.39,-47.77 170,-40 160.08,-36.56 149.41,-33.16 139.11,-30.02"/>
<polygon fill="#63b8ff" stroke="#63b8ff" points="235.06,-68.82 245.64,-69.44 237.75,-62.36 235.06,-68.82"/>
</a>
</g>
</g>
</g>
</svg>
</svg>

<style type='text/css'>
<![CDATA[
[data-mouse-over-selected='false'] { opacity: 0.7; }
[data-mouse-over-selected='true']  { opacity: 1.0; }
]]>
</style>
<script type="application/ecmascript"><![CDATA[
document.addEventListener('DOMContentLoaded', (event) => {
  highlightEdges();
  highlightAdjacentNodes();
});
]]></script>
</svg>
