<?xml version="1.0" encoding="UTF-8" standalone="no"?>
<!DOCTYPE svg PUBLIC "-//W3C//DTD SVG 1.1//EN"
 "http://www.w3.org/Graphics/SVG/1.1/DTD/svg11.dtd">
<!-- Generated by graphviz version 2.43.0 (0)
 -->
<!-- Title: Gráfico de jerarquía de clases Pages: 1 -->
<svg width="229pt" height="64pt"
 viewBox="0.00 0.00 229.00 64.00" xmlns="http://www.w3.org/2000/svg" xmlns:xlink="http://www.w3.org/1999/xlink">
<g id="graph0" class="graph" transform="scale(1 1) rotate(0) translate(4 60)">
<title>Gráfico de jerarquía de clases</title>
<!-- Node0 -->
<g id="Node000000" class="node">
<title>Node0</title>
<g id="a_Node000000"><a xlink:href="classSensorBase.html" target="_top" xlink:title="Clase abstracta que define la interfaz para todos los sensores.">
<polygon fill="white" stroke="#666666" points="74,-37 0,-37 0,-18 74,-18 74,-37"/>
<text text-anchor="middle" x="37" y="-25" font-family="Helvetica,sans-Serif" font-size="10.00">SensorBase</text>
</a>
</g>
</g>
<!-- Node1 -->
<g id="Node000001" class="node">
<title>Node1</title>
<g id="a_Node000001"><a xlink:href="classSensorPresion.html" target="_top" xlink:title="Sensor especializado en lecturas de presión (entero)">
<polygon fill="white" stroke="#666666" points="208.5,-56 122.5,-56 122.5,-37 208.5,-37 208.5,-56"/>
<text text-anchor="middle" x="165.5" y="-44" font-family="Helvetica,sans-Serif" font-size="10.00">SensorPresion</text>
</a>
</g>
</g>
<!-- Node0&#45;&gt;Node1 -->
<g id="edge1_Node000000_Node000001" class="edge">
<title>Node0&#45;&gt;Node1</title>
<g id="a_edge1_Node000000_Node000001"><a xlink:title=" ">
<path fill="none" stroke="#63b8ff" d="M84.43,-34.47C96.87,-36.34 110.25,-38.35 122.44,-40.18"/>
<polygon fill="#63b8ff" stroke="#63b8ff" points="84.66,-30.97 74.25,-32.94 83.62,-37.89 84.66,-30.97"/>
</a>
</g>
</g>
<!-- Node2 -->
<g id="Node000002" class="node">
<title>Node2</title>
<g id="a_Node000002"><a xlink:href="classSensorTemperatura.html" target="_top" xlink:title="Sensor especializado en lecturas de temperatura (punto flotante)">
<polygon fill="white" stroke="#666666" points="221,-19 110,-19 110,0 221,0 221,-19"/>
<text text-anchor="middle" x="165.5" y="-7" font-family="Helvetica,sans-Serif" font-size="10.00">SensorTemperatura</text>
</a>
</g>
</g>
<!-- Node0&#45;&gt;Node2 -->
<g id="edge2_Node000000_Node000002" class="edge">
<title>Node0&#45;&gt;Node2</title>
<g id="a_edge2_Node000000_Node000002"><a xlink:title=" ">
<path fill="none" stroke="#63b8ff" d="M84.17,-20.93C92.52,-19.74 101.29,-18.49 109.85,-17.28"/>
<polygon fill="#63b8ff" stroke="#63b8ff" points="83.66,-17.47 74.25,-22.34 84.64,-24.4 83.66,-17.47"/>
</a>
</g>
</g>
</g>
</svg>
