<?xml version="1.0" encoding="UTF-8" standalone="no"?>
<!DOCTYPE svg PUBLIC "-//W3C//DTD SVG 1.1//EN"
 "http://www.w3.org/Graphics/SVG/1.1/DTD/svg11.dtd">
<!-- Generated by graphviz version 2.43.0 (0)
 -->
<!-- Title: include/ListaSensor.h Pages: 1 -->
<svg width="395pt" height="137pt"
 viewBox="0.00 0.00 395.00 137.00" xmlns="http://www.w3.org/2000/svg" xmlns:xlink="http://www.w3.org/1999/xlink">
<g id="graph0" class="graph" transform="scale(1 1) rotate(0) translate(4 133)">
<title>include/ListaSensor.h</title>
<!-- Node1 -->
<g id="Node000001" class="node">
<title>Node1</title>
<g id="a_Node000001"><a xlink:title="Implementación de Lista Enlazada Simple Genérica para sensores IoT.">
<polygon fill="#999999" stroke="#666666" points="246,-129 127,-129 127,-110 246,-110 246,-129"/>
<text text-anchor="middle" x="186.5" y="-117" font-family="Helvetica,sans-Serif" font-size="10.00">include/ListaSensor.h</text>
</a>
</g>
</g>
<!-- Node2 -->
<g id="Node000002" class="node">
<title>Node2</title>
<g id="a_Node000002"><a xlink:href="SensorPresion_8h.html" target="_top" xlink:title="Clase derivada para sensores de presión (tipo int)">
<polygon fill="white" stroke="#666666" points="171,-74 38,-74 38,-55 171,-55 171,-74"/>
<text text-anchor="middle" x="104.5" y="-62" font-family="Helvetica,sans-Serif" font-size="10.00">include/SensorPresion.h</text>
</a>
</g>
</g>
<!-- Node1&#45;&gt;Node2 -->
<g id="edge1_Node000001_Node000002" class="edge">
<title>Node1&#45;&gt;Node2</title>
<g id="a_edge1_Node000001_Node000002"><a xlink:title=" ">
<path fill="none" stroke="#63b8ff" d="M164.72,-104.42C149.84,-94.81 130.59,-82.37 117.91,-74.17"/>
<polygon fill="#63b8ff" stroke="#63b8ff" points="163.03,-107.5 173.33,-109.98 166.83,-101.62 163.03,-107.5"/>
</a>
</g>
</g>
<!-- Node5 -->
<g id="Node000005" class="node">
<title>Node5</title>
<g id="a_Node000005"><a xlink:href="SensorTemperatura_8h.html" target="_top" xlink:title="Clase derivada para sensores de temperatura (tipo float)">
<polygon fill="white" stroke="#666666" points="347.5,-74 189.5,-74 189.5,-55 347.5,-55 347.5,-74"/>
<text text-anchor="middle" x="268.5" y="-62" font-family="Helvetica,sans-Serif" font-size="10.00">include/SensorTemperatura.h</text>
</a>
</g>
</g>
<!-- Node1&#45;&gt;Node5 -->
<g id="edge4_Node000001_Node000005" class="edge">
<title>Node1&#45;&gt;Node5</title>
<g id="a_edge4_Node000001_Node000005"><a xlink:title=" ">
<path fill="none" stroke="#63b8ff" d="M208.28,-104.42C223.16,-94.81 242.41,-82.37 255.09,-74.17"/>
<polygon fill="#63b8ff" stroke="#63b8ff" points="206.17,-101.62 199.67,-109.98 209.97,-107.5 206.17,-101.62"/>
</a>
</g>
</g>
<!-- Node3 -->
<g id="Node000003" class="node">
<title>Node3</title>
<g id="a_Node000003"><a xlink:href="SensorPresion_8cpp.html" target="_top" xlink:title="Implementación del sensor de presión.">
<polygon fill="white" stroke="#666666" points="123,-19 0,-19 0,0 123,0 123,-19"/>
<text text-anchor="middle" x="61.5" y="-7" font-family="Helvetica,sans-Serif" font-size="10.00">src/SensorPresion.cpp</text>
</a>
</g>
</g>
<!-- Node2&#45;&gt;Node3 -->
<g id="edge2_Node000002_Node000003" class="edge">
<title>Node2&#45;&gt;Node3</title>
<g id="a_edge2_Node000002_Node000003"><a xlink:title=" ">
<path fill="none" stroke="#63b8ff" d="M91.08,-46.96C83.59,-37.72 74.56,-26.6 68.47,-19.09"/>
<polygon fill="#63b8ff" stroke="#63b8ff" points="88.38,-49.19 97.4,-54.75 93.82,-44.78 88.38,-49.19"/>
</a>
</g>
</g>
<!-- Node4 -->
<g id="Node000004" class="node">
<title>Node4</title>
<g id="a_Node000004"><a xlink:href="main_8cpp.html" target="_top" xlink:title="Programa principal de demostración del sistema IoT polimórfico.">
<polygon fill="white" stroke="#666666" points="220,-19 141,-19 141,0 220,0 220,-19"/>
<text text-anchor="middle" x="180.5" y="-7" font-family="Helvetica,sans-Serif" font-size="10.00">src/main.cpp</text>
</a>
</g>
</g>
<!-- Node2&#45;&gt;Node4 -->
<g id="edge3_Node000002_Node000004" class="edge">
<title>Node2&#45;&gt;Node4</title>
<g id="a_edge3_Node000002_Node000004"><a xlink:title=" ">
<path fill="none" stroke="#63b8ff" d="M125.08,-49.15C138.81,-39.57 156.43,-27.29 168.07,-19.17"/>
<polygon fill="#63b8ff" stroke="#63b8ff" points="122.91,-46.39 116.71,-54.98 126.92,-52.14 122.91,-46.39"/>
</a>
</g>
</g>
<!-- Node5&#45;&gt;Node4 -->
<g id="edge6_Node000005_Node000004" class="edge">
<title>Node5&#45;&gt;Node4</title>
<g id="a_edge6_Node000005_Node000004"><a xlink:title=" ">
<path fill="none" stroke="#63b8ff" d="M245.58,-49.7C229.55,-40.04 208.63,-27.44 194.9,-19.17"/>
<polygon fill="#63b8ff" stroke="#63b8ff" points="243.99,-52.82 254.36,-54.98 247.6,-46.83 243.99,-52.82"/>
</a>
</g>
</g>
<!-- Node6 -->
<g id="Node000006" class="node">
<title>Node6</title>
<g id="a_Node000006"><a xlink:href="SensorTemperatura_8cpp.html" target="_top" xlink:title="Implementación del sensor de temperatura.">
<polygon fill="white" stroke="#666666" points="387,-19 238,-19 238,0 387,0 387,-19"/>
<text text-anchor="middle" x="312.5" y="-7" font-family="Helvetica,sans-Serif" font-size="10.00">src/SensorTemperatura.cpp</text>
</a>
</g>
</g>
<!-- Node5&#45;&gt;Node6 -->
<g id="edge5_Node000005_Node000006" class="edge">
<title>Node5&#45;&gt;Node6</title>
<g id="a_edge5_Node000005_Node000006"><a xlink:title=" ">
<path fill="none" stroke="#63b8ff" d="M282.23,-46.96C289.9,-37.72 299.13,-26.6 305.37,-19.09"/>
<polygon fill="#63b8ff" stroke="#63b8ff" points="279.46,-44.82 275.77,-54.75 284.85,-49.29 279.46,-44.82"/>
</a>
</g>
</g>
</g>
</svg>
