<?xml version="1.0" encoding="UTF-8" standalone="no"?>
<!DOCTYPE svg PUBLIC "-//W3C//DTD SVG 1.1//EN"
 "http://www.w3.org/Graphics/SVG/1.1/DTD/svg11.dtd">
<!-- Generated by graphviz version 2.43.0 (0)
 -->
<!-- Title: src/main.cpp Pages: 1 -->
<svg width="379pt" height="192pt"
 viewBox="0.00 0.00 379.24 192.00" xmlns="http://www.w3.org/2000/svg" xmlns:xlink="http://www.w3.org/1999/xlink">
<g id="graph0" class="graph" transform="scale(1 1) rotate(0) translate(4 188)">
<title>src/main.cpp</title>
<!-- Node1 -->
<g id="Node000001" class="node">
<title>Node1</title>
<g id="a_Node000001"><a xlink:title="Programa principal de demostración del sistema IoT polimórfico.">
<polygon fill="#999999" stroke="#666666" points="165.74,-184 86.74,-184 86.74,-165 165.74,-165 165.74,-184"/>
<text text-anchor="middle" x="126.24" y="-172" font-family="Helvetica,sans-Serif" font-size="10.00">src/main.cpp</text>
</a>
</g>
</g>
<!-- Node2 -->
<g id="Node000002" class="node">
<title>Node2</title>
<g id="a_Node000002"><a xlink:href="SistemaGestion_8h.html" target="_top" xlink:title="Sistema de gestión polimórfica de sensores.">
<polygon fill="white" stroke="#666666" points="119.74,-129 16.74,-129 16.74,-110 119.74,-110 119.74,-129"/>
<text text-anchor="middle" x="68.24" y="-117" font-family="Helvetica,sans-Serif" font-size="10.00">SistemaGestion.h</text>
</a>
</g>
</g>
<!-- Node1&#45;&gt;Node2 -->
<g id="edge1_Node000001_Node000002" class="edge">
<title>Node1&#45;&gt;Node2</title>
<g id="a_edge1_Node000001_Node000002"><a xlink:title=" ">
<path fill="none" stroke="#63b8ff" d="M116.92,-164.98C108.43,-157.23 95.68,-145.58 85.36,-136.14"/>
<polygon fill="#63b8ff" stroke="#63b8ff" points="87.47,-133.33 77.73,-129.17 82.75,-138.5 87.47,-133.33"/>
</a>
</g>
</g>
<!-- Node4 -->
<g id="Node000004" class="node">
<title>Node4</title>
<g id="a_Node000004"><a xlink:href="SensorTemperatura_8h.html" target="_top" xlink:title="Clase derivada para sensores de temperatura (tipo float)">
<polygon fill="white" stroke="#666666" points="371.24,-129 251.24,-129 251.24,-110 371.24,-110 371.24,-129"/>
<text text-anchor="middle" x="311.24" y="-117" font-family="Helvetica,sans-Serif" font-size="10.00">SensorTemperatura.h</text>
</a>
</g>
</g>
<!-- Node1&#45;&gt;Node4 -->
<g id="edge3_Node000001_Node000004" class="edge">
<title>Node1&#45;&gt;Node4</title>
<g id="a_edge3_Node000001_Node000004"><a xlink:title=" ">
<path fill="none" stroke="#63b8ff" d="M155.96,-164.98C187.29,-156.01 236.81,-141.82 271.48,-131.89"/>
<polygon fill="#63b8ff" stroke="#63b8ff" points="272.63,-135.2 281.28,-129.08 270.7,-128.47 272.63,-135.2"/>
</a>
</g>
</g>
<!-- Node6 -->
<g id="Node000006" class="node">
<title>Node6</title>
<g id="a_Node000006"><a xlink:title=" ">
<polygon fill="#e0e0e0" stroke="#999999" points="116.24,-19 56.24,-19 56.24,0 116.24,0 116.24,-19"/>
<text text-anchor="middle" x="86.24" y="-7" font-family="Helvetica,sans-Serif" font-size="10.00">iostream</text>
</a>
</g>
</g>
<!-- Node1&#45;&gt;Node6 -->
<g id="edge10_Node000001_Node000006" class="edge">
<title>Node1&#45;&gt;Node6</title>
<g id="a_edge10_Node000001_Node000006"><a xlink:title=" ">
<path fill="none" stroke="#63b8ff" d="M86.5,-170.1C59.26,-165.46 24.96,-154.55 7.24,-129 -18.53,-91.86 32.79,-47.33 64.24,-24.91"/>
<polygon fill="#63b8ff" stroke="#63b8ff" points="66.27,-27.76 72.51,-19.2 62.29,-22.01 66.27,-27.76"/>
</a>
</g>
</g>
<!-- Node7 -->
<g id="Node000007" class="node">
<title>Node7</title>
<g id="a_Node000007"><a xlink:href="SensorPresion_8h.html" target="_top" xlink:title="Clase derivada para sensores de presión (tipo int)">
<polygon fill="white" stroke="#666666" points="232.74,-129 137.74,-129 137.74,-110 232.74,-110 232.74,-129"/>
<text text-anchor="middle" x="185.24" y="-117" font-family="Helvetica,sans-Serif" font-size="10.00">SensorPresion.h</text>
</a>
</g>
</g>
<!-- Node1&#45;&gt;Node7 -->
<g id="edge7_Node000001_Node000007" class="edge">
<title>Node1&#45;&gt;Node7</title>
<g id="a_edge7_Node000001_Node000007"><a xlink:title=" ">
<path fill="none" stroke="#63b8ff" d="M135.72,-164.98C144.44,-157.15 157.58,-145.34 168.14,-135.86"/>
<polygon fill="#63b8ff" stroke="#63b8ff" points="170.49,-138.46 175.59,-129.17 165.81,-133.25 170.49,-138.46"/>
</a>
</g>
</g>
<!-- Node3 -->
<g id="Node000003" class="node">
<title>Node3</title>
<g id="a_Node000003"><a xlink:href="SensorBase_8h.html" target="_top" xlink:title="Clase base abstracta para todos los sensores del sistema IoT.">
<polygon fill="white" stroke="#666666" points="176.74,-74 93.74,-74 93.74,-55 176.74,-55 176.74,-74"/>
<text text-anchor="middle" x="135.24" y="-62" font-family="Helvetica,sans-Serif" font-size="10.00">SensorBase.h</text>
</a>
</g>
</g>
<!-- Node2&#45;&gt;Node3 -->
<g id="edge2_Node000002_Node000003" class="edge">
<title>Node2&#45;&gt;Node3</title>
<g id="a_edge2_Node000002_Node000003"><a xlink:title=" ">
<path fill="none" stroke="#63b8ff" d="M79,-109.98C89,-102.07 104.12,-90.11 116.17,-80.58"/>
<polygon fill="#63b8ff" stroke="#63b8ff" points="118.61,-83.12 124.28,-74.17 114.26,-77.63 118.61,-83.12"/>
</a>
</g>
</g>
<!-- Node4&#45;&gt;Node3 -->
<g id="edge4_Node000004_Node000003" class="edge">
<title>Node4&#45;&gt;Node3</title>
<g id="a_edge4_Node000004_Node000003"><a xlink:title=" ">
<path fill="none" stroke="#63b8ff" d="M282.96,-109.98C253.28,-101.05 206.45,-86.94 173.49,-77.02"/>
<polygon fill="#63b8ff" stroke="#63b8ff" points="174.32,-73.61 163.74,-74.08 172.3,-80.32 174.32,-73.61"/>
</a>
</g>
</g>
<!-- Node5 -->
<g id="Node000005" class="node">
<title>Node5</title>
<g id="a_Node000005"><a xlink:href="ListaSensor_8h.html" target="_top" xlink:title="Implementación de Lista Enlazada Simple Genérica para sensores IoT.">
<polygon fill="white" stroke="#666666" points="275.74,-74 194.74,-74 194.74,-55 275.74,-55 275.74,-74"/>
<text text-anchor="middle" x="235.24" y="-62" font-family="Helvetica,sans-Serif" font-size="10.00">ListaSensor.h</text>
</a>
</g>
</g>
<!-- Node4&#45;&gt;Node5 -->
<g id="edge5_Node000004_Node000005" class="edge">
<title>Node4&#45;&gt;Node5</title>
<g id="a_edge5_Node000004_Node000005"><a xlink:title=" ">
<path fill="none" stroke="#63b8ff" d="M299.03,-109.98C287.46,-101.92 269.86,-89.65 256.08,-80.03"/>
<polygon fill="#63b8ff" stroke="#63b8ff" points="257.88,-77.02 247.67,-74.17 253.87,-82.76 257.88,-77.02"/>
</a>
</g>
</g>
<!-- Node5&#45;&gt;Node6 -->
<g id="edge6_Node000005_Node000006" class="edge">
<title>Node5&#45;&gt;Node6</title>
<g id="a_edge6_Node000005_Node000006"><a xlink:title=" ">
<path fill="none" stroke="#63b8ff" d="M211.3,-54.98C186.68,-46.23 148.12,-32.51 120.32,-22.62"/>
<polygon fill="#63b8ff" stroke="#63b8ff" points="121.21,-19.22 110.61,-19.17 118.86,-25.82 121.21,-19.22"/>
</a>
</g>
</g>
<!-- Node7&#45;&gt;Node3 -->
<g id="edge8_Node000007_Node000003" class="edge">
<title>Node7&#45;&gt;Node3</title>
<g id="a_edge8_Node000007_Node000003"><a xlink:title=" ">
<path fill="none" stroke="#63b8ff" d="M176.98,-109.75C169.77,-102.11 159.13,-90.82 150.39,-81.56"/>
<polygon fill="#63b8ff" stroke="#63b8ff" points="152.75,-78.96 143.34,-74.09 147.66,-83.76 152.75,-78.96"/>
</a>
</g>
</g>
<!-- Node7&#45;&gt;Node5 -->
<g id="edge9_Node000007_Node000005" class="edge">
<title>Node7&#45;&gt;Node5</title>
<g id="a_edge9_Node000007_Node000005"><a xlink:title=" ">
<path fill="none" stroke="#63b8ff" d="M193.49,-109.75C200.7,-102.11 211.35,-90.82 220.08,-81.56"/>
<polygon fill="#63b8ff" stroke="#63b8ff" points="222.82,-83.76 227.14,-74.09 217.73,-78.96 222.82,-83.76"/>
</a>
</g>
</g>
</g>
</svg>
