<?xml version="1.0" encoding="UTF-8" standalone="no"?>
<!DOCTYPE svg PUBLIC "-//W3C//DTD SVG 1.1//EN"
 "http://www.w3.org/Graphics/SVG/1.1/DTD/svg11.dtd">
<!-- Generated by graphviz version 2.43.0 (0)
 -->
<!-- Title: src/SensorTemperatura.cpp Pages: 1 -->
<svg width="249pt" height="192pt"
 viewBox="0.00 0.00 249.00 192.00" xmlns="http://www.w3.org/2000/svg" xmlns:xlink="http://www.w3.org/1999/xlink">
<g id="graph0" class="graph" transform="scale(1 1) rotate(0) translate(4 188)">
<title>src/SensorTemperatura.cpp</title>
<!-- Node1 -->
<g id="Node000001" class="node">
<title>Node1</title>
<g id="a_Node000001"><a xlink:title="Implementación del sensor de temperatura.">
<polygon fill="#999999" stroke="#666666" points="241,-184 92,-184 92,-165 241,-165 241,-184"/>
<text text-anchor="middle" x="166.5" y="-172" font-family="Helvetica,sans-Serif" font-size="10.00">src/SensorTemperatura.cpp</text>
</a>
</g>
</g>
<!-- Node2 -->
<g id="Node000002" class="node">
<title>Node2</title>
<g id="a_Node000002"><a xlink:href="SensorTemperatura_8h.html" target="_top" xlink:title="Clase derivada para sensores de temperatura (tipo float)">
<polygon fill="white" stroke="#666666" points="182.5,-129 62.5,-129 62.5,-110 182.5,-110 182.5,-129"/>
<text text-anchor="middle" x="122.5" y="-117" font-family="Helvetica,sans-Serif" font-size="10.00">SensorTemperatura.h</text>
</a>
</g>
</g>
<!-- Node1&#45;&gt;Node2 -->
<g id="edge1_Node000001_Node000002" class="edge">
<title>Node1&#45;&gt;Node2</title>
<g id="a_edge1_Node000001_Node000002"><a xlink:title=" ">
<path fill="none" stroke="#63b8ff" d="M159.23,-164.75C152.96,-157.18 143.71,-146.05 136.07,-136.84"/>
<polygon fill="#63b8ff" stroke="#63b8ff" points="138.71,-134.55 129.63,-129.09 133.33,-139.02 138.71,-134.55"/>
</a>
</g>
</g>
<!-- Node5 -->
<g id="Node000005" class="node">
<title>Node5</title>
<g id="a_Node000005"><a xlink:title=" ">
<polygon fill="#e0e0e0" stroke="#999999" points="205.5,-19 145.5,-19 145.5,0 205.5,0 205.5,-19"/>
<text text-anchor="middle" x="175.5" y="-7" font-family="Helvetica,sans-Serif" font-size="10.00">iostream</text>
</a>
</g>
</g>
<!-- Node1&#45;&gt;Node5 -->
<g id="edge5_Node000001_Node000005" class="edge">
<title>Node1&#45;&gt;Node5</title>
<g id="a_edge5_Node000001_Node000005"><a xlink:title=" ">
<path fill="none" stroke="#63b8ff" d="M173.13,-164.88C179.26,-156.32 187.96,-142.54 191.5,-129 194.05,-119.24 196.41,-89.09 190.5,-55 188.95,-46.06 185.92,-36.49 182.98,-28.52"/>
<polygon fill="#63b8ff" stroke="#63b8ff" points="186.22,-27.19 179.31,-19.16 179.7,-29.75 186.22,-27.19"/>
</a>
</g>
</g>
<!-- Node3 -->
<g id="Node000003" class="node">
<title>Node3</title>
<g id="a_Node000003"><a xlink:href="SensorBase_8h.html" target="_top" xlink:title="Clase base abstracta para todos los sensores del sistema IoT.">
<polygon fill="white" stroke="#666666" points="83,-74 0,-74 0,-55 83,-55 83,-74"/>
<text text-anchor="middle" x="41.5" y="-62" font-family="Helvetica,sans-Serif" font-size="10.00">SensorBase.h</text>
</a>
</g>
</g>
<!-- Node2&#45;&gt;Node3 -->
<g id="edge2_Node000002_Node000003" class="edge">
<title>Node2&#45;&gt;Node3</title>
<g id="a_edge2_Node000002_Node000003"><a xlink:title=" ">
<path fill="none" stroke="#63b8ff" d="M109.49,-109.98C97.04,-101.84 78.04,-89.41 63.29,-79.76"/>
<polygon fill="#63b8ff" stroke="#63b8ff" points="65.04,-76.72 54.75,-74.17 61.2,-82.57 65.04,-76.72"/>
</a>
</g>
</g>
<!-- Node4 -->
<g id="Node000004" class="node">
<title>Node4</title>
<g id="a_Node000004"><a xlink:href="ListaSensor_8h.html" target="_top" xlink:title="Implementación de Lista Enlazada Simple Genérica para sensores IoT.">
<polygon fill="white" stroke="#666666" points="182,-74 101,-74 101,-55 182,-55 182,-74"/>
<text text-anchor="middle" x="141.5" y="-62" font-family="Helvetica,sans-Serif" font-size="10.00">ListaSensor.h</text>
</a>
</g>
</g>
<!-- Node2&#45;&gt;Node4 -->
<g id="edge3_Node000002_Node000004" class="edge">
<title>Node2&#45;&gt;Node4</title>
<g id="a_edge3_Node000002_Node000004"><a xlink:title=" ">
<path fill="none" stroke="#63b8ff" d="M125.64,-109.75C128.18,-102.65 131.86,-92.4 135.03,-83.56"/>
<polygon fill="#63b8ff" stroke="#63b8ff" points="138.34,-84.68 138.42,-74.09 131.75,-82.32 138.34,-84.68"/>
</a>
</g>
</g>
<!-- Node4&#45;&gt;Node5 -->
<g id="edge4_Node000004_Node000005" class="edge">
<title>Node4&#45;&gt;Node5</title>
<g id="a_edge4_Node000004_Node000005"><a xlink:title=" ">
<path fill="none" stroke="#63b8ff" d="M147.11,-54.75C151.82,-47.42 158.67,-36.73 164.47,-27.7"/>
<polygon fill="#63b8ff" stroke="#63b8ff" points="167.54,-29.4 169.99,-19.09 161.64,-25.62 167.54,-29.4"/>
</a>
</g>
</g>
</g>
</svg>
