<?xml version="1.0" encoding="UTF-8" standalone="no"?>
<!DOCTYPE svg PUBLIC "-//W3C//DTD SVG 1.1//EN"
 "http://www.w3.org/Graphics/SVG/1.1/DTD/svg11.dtd">
<!-- Generated by graphviz version 2.43.0 (0)
 -->
<!-- Title: include/SensorPresion.h Pages: 1 -->
<svg width="228pt" height="82pt"
 viewBox="0.00 0.00 228.00 82.00" xmlns="http://www.w3.org/2000/svg" xmlns:xlink="http://www.w3.org/1999/xlink">
<g id="graph0" class="graph" transform="scale(1 1) rotate(0) translate(4 78)">
<title>include/SensorPresion.h</title>
<!-- Node1 -->
<g id="Node000001" class="node">
<title>Node1</title>
<g id="a_Node000001"><a xlink:title="Clase derivada para sensores de presión (tipo int)">
<polygon fill="#999999" stroke="#666666" points="187,-74 54,-74 54,-55 187,-55 187,-74"/>
<text text-anchor="middle" x="120.5" y="-62" font-family="Helvetica,sans-Serif" font-size="10.00">include/SensorPresion.h</text>
</a>
</g>
</g>
<!-- Node2 -->
<g id="Node000002" class="node">
<title>Node2</title>
<g id="a_Node000002"><a xlink:href="SensorPresion_8cpp.html" target="_top" xlink:title="Implementación del sensor de presión.">
<polygon fill="white" stroke="#666666" points="123,-19 0,-19 0,0 123,0 123,-19"/>
<text text-anchor="middle" x="61.5" y="-7" font-family="Helvetica,sans-Serif" font-size="10.00">src/SensorPresion.cpp</text>
</a>
</g>
</g>
<!-- Node1&#45;&gt;Node2 -->
<g id="edge1_Node000001_Node000002" class="edge">
<title>Node1&#45;&gt;Node2</title>
<g id="a_edge1_Node000001_Node000002"><a xlink:title=" ">
<path fill="none" stroke="#63b8ff" d="M103.3,-48.04C92.83,-38.64 79.85,-26.98 71.15,-19.17"/>
<polygon fill="#63b8ff" stroke="#63b8ff" points="101.24,-50.91 111.02,-54.98 105.92,-45.7 101.24,-50.91"/>
</a>
</g>
</g>
<!-- Node3 -->
<g id="Node000003" class="node">
<title>Node3</title>
<g id="a_Node000003"><a xlink:href="main_8cpp.html" target="_top" xlink:title="Programa principal de demostración del sistema IoT polimórfico.">
<polygon fill="white" stroke="#666666" points="220,-19 141,-19 141,0 220,0 220,-19"/>
<text text-anchor="middle" x="180.5" y="-7" font-family="Helvetica,sans-Serif" font-size="10.00">src/main.cpp</text>
</a>
</g>
</g>
<!-- Node1&#45;&gt;Node3 -->
<g id="edge2_Node000001_Node000003" class="edge">
<title>Node1&#45;&gt;Node3</title>
<g id="a_edge2_Node000001_Node000003"><a xlink:title=" ">
<path fill="none" stroke="#63b8ff" d="M137.68,-48.32C148.38,-38.87 161.76,-27.06 170.68,-19.17"/>
<polygon fill="#63b8ff" stroke="#63b8ff" points="135.32,-45.74 130.14,-54.98 139.95,-50.99 135.32,-45.74"/>
</a>
</g>
</g>
</g>
</svg>
