<?xml version="1.0" encoding="UTF-8" standalone="no"?>
<!DOCTYPE svg PUBLIC "-//W3C//DTD SVG 1.1//EN"
 "http://www.w3.org/Graphics/SVG/1.1/DTD/svg11.dtd">
<!-- Generated by graphviz version 2.43.0 (0)
 -->
<!-- Title: src/SensorPresion.cpp Pages: 1 -->
<svg width="242pt" height="192pt"
 viewBox="0.00 0.00 242.00 192.00" xmlns="http://www.w3.org/2000/svg" xmlns:xlink="http://www.w3.org/1999/xlink">
<g id="graph0" class="graph" transform="scale(1 1) rotate(0) translate(4 188)">
<title>src/SensorPresion.cpp</title>
<!-- Node1 -->
<g id="Node000001" class="node">
<title>Node1</title>
<g id="a_Node000001"><a xlink:title="Implementación del sensor de presión.">
<polygon fill="#999999" stroke="#666666" points="234,-184 111,-184 111,-165 234,-165 234,-184"/>
<text text-anchor="middle" x="172.5" y="-172" font-family="Helvetica,sans-Serif" font-size="10.00">src/SensorPresion.cpp</text>
</a>
</g>
</g>
<!-- Node2 -->
<g id="Node000002" class="node">
<title>Node2</title>
<g id="a_Node000002"><a xlink:href="SensorPresion_8h.html" target="_top" xlink:title="Clase derivada para sensores de presión (tipo int)">
<polygon fill="white" stroke="#666666" points="182,-129 87,-129 87,-110 182,-110 182,-129"/>
<text text-anchor="middle" x="134.5" y="-117" font-family="Helvetica,sans-Serif" font-size="10.00">SensorPresion.h</text>
</a>
</g>
</g>
<!-- Node1&#45;&gt;Node2 -->
<g id="edge1_Node000001_Node000002" class="edge">
<title>Node1&#45;&gt;Node2</title>
<g id="a_edge1_Node000001_Node000002"><a xlink:title=" ">
<path fill="none" stroke="#63b8ff" d="M166.23,-164.75C160.91,-157.34 153.14,-146.5 146.62,-137.41"/>
<polygon fill="#63b8ff" stroke="#63b8ff" points="149.33,-135.18 140.66,-129.09 143.64,-139.26 149.33,-135.18"/>
</a>
</g>
</g>
<!-- Node5 -->
<g id="Node000005" class="node">
<title>Node5</title>
<g id="a_Node000005"><a xlink:title=" ">
<polygon fill="#e0e0e0" stroke="#999999" points="205.5,-19 145.5,-19 145.5,0 205.5,0 205.5,-19"/>
<text text-anchor="middle" x="175.5" y="-7" font-family="Helvetica,sans-Serif" font-size="10.00">iostream</text>
</a>
</g>
</g>
<!-- Node1&#45;&gt;Node5 -->
<g id="edge5_Node000001_Node000005" class="edge">
<title>Node1&#45;&gt;Node5</title>
<g id="a_edge5_Node000001_Node000005"><a xlink:title=" ">
<path fill="none" stroke="#63b8ff" d="M177.12,-164.94C181.56,-156.2 187.95,-142.09 190.5,-129 196.78,-96.72 195.82,-87.46 190.5,-55 189.03,-46.05 186.01,-36.47 183.06,-28.51"/>
<polygon fill="#63b8ff" stroke="#63b8ff" points="186.29,-27.16 179.36,-19.15 179.78,-29.74 186.29,-27.16"/>
</a>
</g>
</g>
<!-- Node3 -->
<g id="Node000003" class="node">
<title>Node3</title>
<g id="a_Node000003"><a xlink:href="SensorBase_8h.html" target="_top" xlink:title="Clase base abstracta para todos los sensores del sistema IoT.">
<polygon fill="white" stroke="#666666" points="83,-74 0,-74 0,-55 83,-55 83,-74"/>
<text text-anchor="middle" x="41.5" y="-62" font-family="Helvetica,sans-Serif" font-size="10.00">SensorBase.h</text>
</a>
</g>
</g>
<!-- Node2&#45;&gt;Node3 -->
<g id="edge2_Node000002_Node000003" class="edge">
<title>Node2&#45;&gt;Node3</title>
<g id="a_edge2_Node000002_Node000003"><a xlink:title=" ">
<path fill="none" stroke="#63b8ff" d="M119.56,-109.98C105,-101.69 82.63,-88.94 65.57,-79.22"/>
<polygon fill="#63b8ff" stroke="#63b8ff" points="67.14,-76.08 56.71,-74.17 63.67,-82.16 67.14,-76.08"/>
</a>
</g>
</g>
<!-- Node4 -->
<g id="Node000004" class="node">
<title>Node4</title>
<g id="a_Node000004"><a xlink:href="ListaSensor_8h.html" target="_top" xlink:title="Implementación de Lista Enlazada Simple Genérica para sensores IoT.">
<polygon fill="white" stroke="#666666" points="182,-74 101,-74 101,-55 182,-55 182,-74"/>
<text text-anchor="middle" x="141.5" y="-62" font-family="Helvetica,sans-Serif" font-size="10.00">ListaSensor.h</text>
</a>
</g>
</g>
<!-- Node2&#45;&gt;Node4 -->
<g id="edge3_Node000002_Node000004" class="edge">
<title>Node2&#45;&gt;Node4</title>
<g id="a_edge3_Node000002_Node000004"><a xlink:title=" ">
<path fill="none" stroke="#63b8ff" d="M135.66,-109.75C136.57,-102.8 137.89,-92.85 139.04,-84.13"/>
<polygon fill="#63b8ff" stroke="#63b8ff" points="142.53,-84.46 140.37,-74.09 135.59,-83.54 142.53,-84.46"/>
</a>
</g>
</g>
<!-- Node4&#45;&gt;Node5 -->
<g id="edge4_Node000004_Node000005" class="edge">
<title>Node4&#45;&gt;Node5</title>
<g id="a_edge4_Node000004_Node000005"><a xlink:title=" ">
<path fill="none" stroke="#63b8ff" d="M147.11,-54.75C151.82,-47.42 158.67,-36.73 164.47,-27.7"/>
<polygon fill="#63b8ff" stroke="#63b8ff" points="167.54,-29.4 169.99,-19.09 161.64,-25.62 167.54,-29.4"/>
</a>
</g>
</g>
</g>
</svg>
