<?xml version="1.0" encoding="UTF-8" standalone="no"?>
<!DOCTYPE svg PUBLIC "-//W3C//DTD SVG 1.1//EN"
 "http://www.w3.org/Graphics/SVG/1.1/DTD/svg11.dtd">
<!-- Generated by graphviz version 2.43.0 (0)
 -->
<!-- Title: include/SensorTemperatura.h Pages: 1 -->
<svg width="254pt" height="82pt"
 viewBox="0.00 0.00 254.00 82.00" xmlns="http://www.w3.org/2000/svg" xmlns:xlink="http://www.w3.org/1999/xlink">
<g id="graph0" class="graph" transform="scale(1 1) rotate(0) translate(4 78)">
<title>include/SensorTemperatura.h</title>
<!-- Node1 -->
<g id="Node000001" class="node">
<title>Node1</title>
<g id="a_Node000001"><a xlink:title="Clase derivada para sensores de temperatura (tipo float)">
<polygon fill="#999999" stroke="#666666" points="219.5,-74 61.5,-74 61.5,-55 219.5,-55 219.5,-74"/>
<text text-anchor="middle" x="140.5" y="-62" font-family="Helvetica,sans-Serif" font-size="10.00">include/SensorTemperatura.h</text>
</a>
</g>
</g>
<!-- Node2 -->
<g id="Node000002" class="node">
<title>Node2</title>
<g id="a_Node000002"><a xlink:href="SensorTemperatura_8cpp.html" target="_top" xlink:title="Implementación del sensor de temperatura.">
<polygon fill="white" stroke="#666666" points="149,-19 0,-19 0,0 149,0 149,-19"/>
<text text-anchor="middle" x="74.5" y="-7" font-family="Helvetica,sans-Serif" font-size="10.00">src/SensorTemperatura.cpp</text>
</a>
</g>
</g>
<!-- Node1&#45;&gt;Node2 -->
<g id="edge1_Node000001_Node000002" class="edge">
<title>Node1&#45;&gt;Node2</title>
<g id="a_edge1_Node000001_Node000002"><a xlink:title=" ">
<path fill="none" stroke="#63b8ff" d="M121.95,-48.6C110.12,-39.11 95.21,-27.13 85.3,-19.17"/>
<polygon fill="#63b8ff" stroke="#63b8ff" points="119.91,-51.45 129.9,-54.98 124.29,-45.99 119.91,-51.45"/>
</a>
</g>
</g>
<!-- Node3 -->
<g id="Node000003" class="node">
<title>Node3</title>
<g id="a_Node000003"><a xlink:href="main_8cpp.html" target="_top" xlink:title="Programa principal de demostración del sistema IoT polimórfico.">
<polygon fill="white" stroke="#666666" points="246,-19 167,-19 167,0 246,0 246,-19"/>
<text text-anchor="middle" x="206.5" y="-7" font-family="Helvetica,sans-Serif" font-size="10.00">src/main.cpp</text>
</a>
</g>
</g>
<!-- Node1&#45;&gt;Node3 -->
<g id="edge2_Node000001_Node000003" class="edge">
<title>Node1&#45;&gt;Node3</title>
<g id="a_edge2_Node000001_Node000003"><a xlink:title=" ">
<path fill="none" stroke="#63b8ff" d="M159.05,-48.6C170.88,-39.11 185.79,-27.13 195.7,-19.17"/>
<polygon fill="#63b8ff" stroke="#63b8ff" points="156.71,-45.99 151.1,-54.98 161.09,-51.45 156.71,-45.99"/>
</a>
</g>
</g>
</g>
</svg>
