<?xml version="1.0" encoding="UTF-8" standalone="no"?>
<!DOCTYPE svg PUBLIC "-//W3C//DTD SVG 1.1//EN"
 "http://www.w3.org/Graphics/SVG/1.1/DTD/svg11.dtd">
<!-- Generated by graphviz version 2.43.0 (0)
 -->
<!-- Title: include/SensorBase.h Pages: 1 -->
<svg width="639pt" height="137pt"
 viewBox="0.00 0.00 639.00 137.00" xmlns="http://www.w3.org/2000/svg" xmlns:xlink="http://www.w3.org/1999/xlink">
<g id="graph0" class="graph" transform="scale(1 1) rotate(0) translate(4 133)">
<title>include/SensorBase.h</title>
<!-- Node1 -->
<g id="Node000001" class="node">
<title>Node1</title>
<g id="a_Node000001"><a xlink:title="Clase base abstracta para todos los sensores del sistema IoT.">
<polygon fill="#999999" stroke="#666666" points="408,-129 287,-129 287,-110 408,-110 408,-129"/>
<text text-anchor="middle" x="347.5" y="-117" font-family="Helvetica,sans-Serif" font-size="10.00">include/SensorBase.h</text>
</a>
</g>
</g>
<!-- Node2 -->
<g id="Node000002" class="node">
<title>Node2</title>
<g id="a_Node000002"><a xlink:href="SensorPresion_8h.html" target="_top" xlink:title="Clase derivada para sensores de presión (tipo int)">
<polygon fill="white" stroke="#666666" points="166,-74 33,-74 33,-55 166,-55 166,-74"/>
<text text-anchor="middle" x="99.5" y="-62" font-family="Helvetica,sans-Serif" font-size="10.00">include/SensorPresion.h</text>
</a>
</g>
</g>
<!-- Node1&#45;&gt;Node2 -->
<g id="edge1_Node000001_Node000002" class="edge">
<title>Node1&#45;&gt;Node2</title>
<g id="a_edge1_Node000001_Node000002"><a xlink:title=" ">
<path fill="none" stroke="#63b8ff" d="M297.8,-107.88C251.32,-97.94 182.77,-83.3 139.66,-74.08"/>
<polygon fill="#63b8ff" stroke="#63b8ff" points="297.14,-111.32 307.65,-109.98 298.61,-104.47 297.14,-111.32"/>
</a>
</g>
</g>
<!-- Node5 -->
<g id="Node000005" class="node">
<title>Node5</title>
<g id="a_Node000005"><a xlink:href="SensorTemperatura_8h.html" target="_top" xlink:title="Clase derivada para sensores de temperatura (tipo float)">
<polygon fill="white" stroke="#666666" points="342.5,-74 184.5,-74 184.5,-55 342.5,-55 342.5,-74"/>
<text text-anchor="middle" x="263.5" y="-62" font-family="Helvetica,sans-Serif" font-size="10.00">include/SensorTemperatura.h</text>
</a>
</g>
</g>
<!-- Node1&#45;&gt;Node5 -->
<g id="edge4_Node000001_Node000005" class="edge">
<title>Node1&#45;&gt;Node5</title>
<g id="a_edge4_Node000001_Node000005"><a xlink:title=" ">
<path fill="none" stroke="#63b8ff" d="M325.19,-104.42C309.95,-94.81 290.23,-82.37 277.24,-74.17"/>
<polygon fill="#63b8ff" stroke="#63b8ff" points="323.68,-107.61 334,-109.98 327.41,-101.69 323.68,-107.61"/>
</a>
</g>
</g>
<!-- Node7 -->
<g id="Node000007" class="node">
<title>Node7</title>
<g id="a_Node000007"><a xlink:href="SistemaGestion_8h.html" target="_top" xlink:title="Sistema de gestión polimórfica de sensores.">
<polygon fill="white" stroke="#666666" points="502,-74 361,-74 361,-55 502,-55 502,-74"/>
<text text-anchor="middle" x="431.5" y="-62" font-family="Helvetica,sans-Serif" font-size="10.00">include/SistemaGestion.h</text>
</a>
</g>
</g>
<!-- Node1&#45;&gt;Node7 -->
<g id="edge7_Node000001_Node000007" class="edge">
<title>Node1&#45;&gt;Node7</title>
<g id="a_edge7_Node000001_Node000007"><a xlink:title=" ">
<path fill="none" stroke="#63b8ff" d="M369.81,-104.42C385.05,-94.81 404.77,-82.37 417.76,-74.17"/>
<polygon fill="#63b8ff" stroke="#63b8ff" points="367.59,-101.69 361,-109.98 371.32,-107.61 367.59,-101.69"/>
</a>
</g>
</g>
<!-- Node9 -->
<g id="Node000009" class="node">
<title>Node9</title>
<g id="a_Node000009"><a xlink:href="SensorBase_8cpp.html" target="_top" xlink:title="Implementación de la clase base abstracta SensorBase.">
<polygon fill="white" stroke="#666666" points="631,-74 520,-74 520,-55 631,-55 631,-74"/>
<text text-anchor="middle" x="575.5" y="-62" font-family="Helvetica,sans-Serif" font-size="10.00">src/SensorBase.cpp</text>
</a>
</g>
</g>
<!-- Node1&#45;&gt;Node9 -->
<g id="edge10_Node000001_Node000009" class="edge">
<title>Node1&#45;&gt;Node9</title>
<g id="a_edge10_Node000001_Node000009"><a xlink:title=" ">
<path fill="none" stroke="#63b8ff" d="M394,-107.69C436.72,-97.76 499.2,-83.24 538.58,-74.08"/>
<polygon fill="#63b8ff" stroke="#63b8ff" points="393.08,-104.31 384.13,-109.98 394.66,-111.13 393.08,-104.31"/>
</a>
</g>
</g>
<!-- Node3 -->
<g id="Node000003" class="node">
<title>Node3</title>
<g id="a_Node000003"><a xlink:href="SensorPresion_8cpp.html" target="_top" xlink:title="Implementación del sensor de presión.">
<polygon fill="white" stroke="#666666" points="123,-19 0,-19 0,0 123,0 123,-19"/>
<text text-anchor="middle" x="61.5" y="-7" font-family="Helvetica,sans-Serif" font-size="10.00">src/SensorPresion.cpp</text>
</a>
</g>
</g>
<!-- Node2&#45;&gt;Node3 -->
<g id="edge2_Node000002_Node000003" class="edge">
<title>Node2&#45;&gt;Node3</title>
<g id="a_edge2_Node000002_Node000003"><a xlink:title=" ">
<path fill="none" stroke="#63b8ff" d="M87.23,-46.39C80.69,-37.27 72.93,-26.45 67.66,-19.09"/>
<polygon fill="#63b8ff" stroke="#63b8ff" points="84.55,-48.66 93.23,-54.75 90.24,-44.58 84.55,-48.66"/>
</a>
</g>
</g>
<!-- Node4 -->
<g id="Node000004" class="node">
<title>Node4</title>
<g id="a_Node000004"><a xlink:href="main_8cpp.html" target="_top" xlink:title="Programa principal de demostración del sistema IoT polimórfico.">
<polygon fill="white" stroke="#666666" points="220,-19 141,-19 141,0 220,0 220,-19"/>
<text text-anchor="middle" x="180.5" y="-7" font-family="Helvetica,sans-Serif" font-size="10.00">src/main.cpp</text>
</a>
</g>
</g>
<!-- Node2&#45;&gt;Node4 -->
<g id="edge3_Node000002_Node000004" class="edge">
<title>Node2&#45;&gt;Node4</title>
<g id="a_edge3_Node000002_Node000004"><a xlink:title=" ">
<path fill="none" stroke="#63b8ff" d="M121.01,-49.42C135.71,-39.81 154.72,-27.37 167.25,-19.17"/>
<polygon fill="#63b8ff" stroke="#63b8ff" points="118.97,-46.58 112.51,-54.98 122.8,-52.44 118.97,-46.58"/>
</a>
</g>
</g>
<!-- Node5&#45;&gt;Node4 -->
<g id="edge6_Node000005_Node000004" class="edge">
<title>Node5&#45;&gt;Node4</title>
<g id="a_edge6_Node000005_Node000004"><a xlink:title=" ">
<path fill="none" stroke="#63b8ff" d="M241.46,-49.42C226.39,-39.81 206.91,-27.37 194.08,-19.17"/>
<polygon fill="#63b8ff" stroke="#63b8ff" points="239.85,-52.55 250.16,-54.98 243.62,-46.65 239.85,-52.55"/>
</a>
</g>
</g>
<!-- Node6 -->
<g id="Node000006" class="node">
<title>Node6</title>
<g id="a_Node000006"><a xlink:href="SensorTemperatura_8cpp.html" target="_top" xlink:title="Implementación del sensor de temperatura.">
<polygon fill="white" stroke="#666666" points="387,-19 238,-19 238,0 387,0 387,-19"/>
<text text-anchor="middle" x="312.5" y="-7" font-family="Helvetica,sans-Serif" font-size="10.00">src/SensorTemperatura.cpp</text>
</a>
</g>
</g>
<!-- Node5&#45;&gt;Node6 -->
<g id="edge5_Node000005_Node000006" class="edge">
<title>Node5&#45;&gt;Node6</title>
<g id="a_edge5_Node000005_Node000006"><a xlink:title=" ">
<path fill="none" stroke="#63b8ff" d="M278.53,-47.24C287.12,-37.95 297.54,-26.68 304.56,-19.09"/>
<polygon fill="#63b8ff" stroke="#63b8ff" points="275.81,-45.03 271.59,-54.75 280.95,-49.78 275.81,-45.03"/>
</a>
</g>
</g>
<!-- Node7&#45;&gt;Node4 -->
<g id="edge9_Node000007_Node000004" class="edge">
<title>Node7&#45;&gt;Node4</title>
<g id="a_edge9_Node000007_Node000004"><a xlink:title=" ">
<path fill="none" stroke="#63b8ff" d="M381.14,-52.87C333.79,-42.87 263.87,-28.1 220.31,-18.91"/>
<polygon fill="#63b8ff" stroke="#63b8ff" points="380.67,-56.34 391.17,-54.98 382.11,-49.49 380.67,-56.34"/>
</a>
</g>
</g>
<!-- Node8 -->
<g id="Node000008" class="node">
<title>Node8</title>
<g id="a_Node000008"><a xlink:href="SistemaGestion_8cpp.html" target="_top" xlink:title="Implementación del sistema de gestión polimórfica.">
<polygon fill="white" stroke="#666666" points="536,-19 405,-19 405,0 536,0 536,-19"/>
<text text-anchor="middle" x="470.5" y="-7" font-family="Helvetica,sans-Serif" font-size="10.00">src/SistemaGestion.cpp</text>
</a>
</g>
</g>
<!-- Node7&#45;&gt;Node8 -->
<g id="edge8_Node000007_Node000008" class="edge">
<title>Node7&#45;&gt;Node8</title>
<g id="a_edge8_Node000007_Node000008"><a xlink:title=" ">
<path fill="none" stroke="#63b8ff" d="M443.88,-46.67C450.64,-37.5 458.71,-26.52 464.18,-19.09"/>
<polygon fill="#63b8ff" stroke="#63b8ff" points="441.05,-44.62 437.94,-54.75 446.69,-48.77 441.05,-44.62"/>
</a>
</g>
</g>
</g>
</svg>
