<?xml version="1.0" encoding="UTF-8" standalone="no"?>
<!DOCTYPE svg PUBLIC "-//W3C//DTD SVG 1.1//EN"
 "http://www.w3.org/Graphics/SVG/1.1/DTD/svg11.dtd">
<!-- Generated by graphviz version 2.43.0 (0)
 -->
<!-- Title: src/SistemaGestion.cpp Pages: 1 -->
<svg width="258pt" height="137pt"
 viewBox="0.00 0.00 257.50 137.00" xmlns="http://www.w3.org/2000/svg" xmlns:xlink="http://www.w3.org/1999/xlink">
<g id="graph0" class="graph" transform="scale(1 1) rotate(0) translate(4 133)">
<title>src/SistemaGestion.cpp</title>
<!-- Node1 -->
<g id="Node000001" class="node">
<title>Node1</title>
<g id="a_Node000001"><a xlink:title="Implementación del sistema de gestión polimórfica.">
<polygon fill="#999999" stroke="#666666" points="217,-129 86,-129 86,-110 217,-110 217,-129"/>
<text text-anchor="middle" x="151.5" y="-117" font-family="Helvetica,sans-Serif" font-size="10.00">src/SistemaGestion.cpp</text>
</a>
</g>
</g>
<!-- Node2 -->
<g id="Node000002" class="node">
<title>Node2</title>
<g id="a_Node000002"><a xlink:href="SistemaGestion_8h.html" target="_top" xlink:title="Sistema de gestión polimórfica de sensores.">
<polygon fill="white" stroke="#666666" points="103,-74 0,-74 0,-55 103,-55 103,-74"/>
<text text-anchor="middle" x="51.5" y="-62" font-family="Helvetica,sans-Serif" font-size="10.00">SistemaGestion.h</text>
</a>
</g>
</g>
<!-- Node1&#45;&gt;Node2 -->
<g id="edge1_Node000001_Node000002" class="edge">
<title>Node1&#45;&gt;Node2</title>
<g id="a_edge1_Node000001_Node000002"><a xlink:title=" ">
<path fill="none" stroke="#63b8ff" d="M135.43,-109.98C119.64,-101.61 95.28,-88.7 76.87,-78.95"/>
<polygon fill="#63b8ff" stroke="#63b8ff" points="78.33,-75.76 67.86,-74.17 75.06,-81.95 78.33,-75.76"/>
</a>
</g>
</g>
<!-- Node4 -->
<g id="Node000004" class="node">
<title>Node4</title>
<g id="a_Node000004"><a xlink:title=" ">
<polygon fill="#e0e0e0" stroke="#999999" points="181.5,-74 121.5,-74 121.5,-55 181.5,-55 181.5,-74"/>
<text text-anchor="middle" x="151.5" y="-62" font-family="Helvetica,sans-Serif" font-size="10.00">iostream</text>
</a>
</g>
</g>
<!-- Node1&#45;&gt;Node4 -->
<g id="edge3_Node000001_Node000004" class="edge">
<title>Node1&#45;&gt;Node4</title>
<g id="a_edge3_Node000001_Node000004"><a xlink:title=" ">
<path fill="none" stroke="#63b8ff" d="M151.5,-109.75C151.5,-102.8 151.5,-92.85 151.5,-84.13"/>
<polygon fill="#63b8ff" stroke="#63b8ff" points="155,-84.09 151.5,-74.09 148,-84.09 155,-84.09"/>
</a>
</g>
</g>
<!-- Node5 -->
<g id="Node000005" class="node">
<title>Node5</title>
<g id="a_Node000005"><a xlink:title=" ">
<polygon fill="#e0e0e0" stroke="#999999" points="249.5,-74 199.5,-74 199.5,-55 249.5,-55 249.5,-74"/>
<text text-anchor="middle" x="224.5" y="-62" font-family="Helvetica,sans-Serif" font-size="10.00">cstring</text>
</a>
</g>
</g>
<!-- Node1&#45;&gt;Node5 -->
<g id="edge4_Node000001_Node000005" class="edge">
<title>Node1&#45;&gt;Node5</title>
<g id="a_edge4_Node000001_Node000005"><a xlink:title=" ">
<path fill="none" stroke="#63b8ff" d="M163.23,-109.98C174.23,-102 190.92,-89.88 204.1,-80.31"/>
<polygon fill="#63b8ff" stroke="#63b8ff" points="206.52,-82.88 212.56,-74.17 202.41,-77.21 206.52,-82.88"/>
</a>
</g>
</g>
<!-- Node3 -->
<g id="Node000003" class="node">
<title>Node3</title>
<g id="a_Node000003"><a xlink:href="SensorBase_8h.html" target="_top" xlink:title="Clase base abstracta para todos los sensores del sistema IoT.">
<polygon fill="white" stroke="#666666" points="93,-19 10,-19 10,0 93,0 93,-19"/>
<text text-anchor="middle" x="51.5" y="-7" font-family="Helvetica,sans-Serif" font-size="10.00">SensorBase.h</text>
</a>
</g>
</g>
<!-- Node2&#45;&gt;Node3 -->
<g id="edge2_Node000002_Node000003" class="edge">
<title>Node2&#45;&gt;Node3</title>
<g id="a_edge2_Node000002_Node000003"><a xlink:title=" ">
<path fill="none" stroke="#63b8ff" d="M51.5,-54.75C51.5,-47.8 51.5,-37.85 51.5,-29.13"/>
<polygon fill="#63b8ff" stroke="#63b8ff" points="55,-29.09 51.5,-19.09 48,-29.09 55,-29.09"/>
</a>
</g>
</g>
</g>
</svg>
