<?xml version="1.0" encoding="UTF-8" standalone="no"?>
<!DOCTYPE svg PUBLIC "-//W3C//DTD SVG 1.1//EN"
 "http://www.w3.org/Graphics/SVG/1.1/DTD/svg11.dtd">
<!-- Generated by graphviz version 2.43.0 (0)
 -->
<!-- Title: Nodo::Nodo Pages: 1 -->
<!--zoomable 908 -->

<svg id="main" version="1.1" xmlns="http://www.w3.org/2000/svg" xmlns:xlink="http://www.w3.org/1999/xlink" xml:space="preserve" onload="init(evt)">
<style type="text/css"><![CDATA[
.node, .edge {opacity: 0.7;}
.node.selected, .edge.selected {opacity: 1;}
.edge:hover path { stroke: red; }
.edge:hover polygon { stroke: red; fill: red; }
]]></style>

<defs>
  <circle id="rim" cx="0" cy="0" r="7"/>
  <circle id="rim2" cx="0" cy="0" r="3.5"/>
  <g id="zoomPlus">
    <use xlink:href="#rim" fill="#404040"><set attributeName="fill" to="#808080" begin="zoomplus.mouseover" end="zoomplus.mouseout"/></use>
    <path d="M-4,0h8M0,-4v8" fill="none" stroke="white" stroke-width="1.5" pointer-events="none"/>
  </g>
  <g id="zoomMin">
    <use xlink:href="#rim" fill="#404040"><set attributeName="fill" to="#808080" begin="zoomminus.mouseover" end="zoomminus.mouseout"/></use>
    <path d="M-4,0h8" fill="none" stroke="white" stroke-width="1.5" pointer-events="none"/>
  </g>
  <g id="arrowUp" transform="translate(30 24)">
    <use xlink:href="#rim"/>
    <path pointer-events="none" fill="none" stroke="white" stroke-width="1.5" d="M0,-3.0v7 M-2.5,-0.5L0,-3.0L2.5,-0.5"/>
  </g>
  <g id="arrowRight" transform="rotate(90) translate(36 -43)">
    <use xlink:href="#rim"/>
    <path pointer-events="none" fill="none" stroke="white" stroke-width="1.5" d="M0,-3.0v7 M-2.5,-0.5L0,-3.0L2.5,-0.5"/>
  </g>
  <g id="arrowDown" transform="rotate(180) translate(-30 -48)">
    <use xlink:href="#rim"/>
    <path pointer-events="none" fill="none" stroke="white" stroke-width="1.5" d="M0,-3.0v7 M-2.5,-0.5L0,-3.0L2.5,-0.5"/>
  </g>
  <g id="arrowLeft" transform="rotate(270) translate(-36 17)">
    <use xlink:href="#rim"/>
    <path pointer-events="none" fill="none" stroke="white" stroke-width="1.5" d="M0,-3.0v7 M-2.5,-0.5L0,-3.0L2.5,-0.5"/>
  </g>
  <g id="resetDef">
    <use xlink:href="#rim2" fill="#404040"><set attributeName="fill" to="#808080" begin="reset.mouseover" end="reset.mouseout"/></use>
  </g>
</defs>
<script type="application/ecmascript">
var viewWidth = 479;
var viewHeight = 908;
var sectionId = 'dynsection-1';
</script>
<script type="application/ecmascript" xlink:href="svg.min.js"/>
<svg id="graph" class="graph">
<g id="viewport">
<title>Nodo::Nodo</title>
<!-- Node1 -->
<g id="Node000001" class="node">
<title>Node1</title>
<g id="a_Node000001"><a xlink:title="Constructor del nodo.">
<polygon fill="#999999" stroke="#666666" points="471,-473.5 397,-473.5 397,-454.5 471,-454.5 471,-473.5"/>
<text text-anchor="middle" x="434" y="-461.5" font-family="Helvetica,sans-Serif" font-size="10.00">Nodo::Nodo</text>
</a>
</g>
</g>
<!-- Node2 -->
<g id="Node000002" class="node">
<title>Node2</title>
<g id="a_Node000002"><a xlink:href="classSistemaGestion.html#a65e2c2813f0e3db74dcd71165f39717b" target="_top" xlink:title="Agrega un sensor al sistema de gestión.">
<polygon fill="white" stroke="#666666" points="357.5,-899.5 187.5,-899.5 187.5,-880.5 357.5,-880.5 357.5,-899.5"/>
<text text-anchor="middle" x="272.5" y="-887.5" font-family="Helvetica,sans-Serif" font-size="10.00">SistemaGestion::agregarSensor</text>
</a>
</g>
</g>
<!-- Node1&#45;&gt;Node2 -->
<g id="edge1_Node000001_Node000002" class="edge">
<title>Node1&#45;&gt;Node2</title>
<g id="a_edge1_Node000001_Node000002"><a xlink:title=" ">
<path fill="none" stroke="#63b8ff" d="M432.36,-483.77C429.54,-557.57 415.85,-815.58 361,-872 357.76,-875.34 354.07,-878.14 350.09,-880.48"/>
<polygon fill="#63b8ff" stroke="#63b8ff" points="435.86,-483.69 432.72,-473.57 428.86,-483.44 435.86,-483.69"/>
</a>
</g>
</g>
<!-- Node3 -->
<g id="Node000003" class="node">
<title>Node3</title>
<g id="a_Node000003"><a xlink:href="classListaSensor.html#a91249a76a5046cdd31c22a653e9a2573" target="_top" xlink:title="Encuentra y elimina el valor más bajo de la lista.">
<polygon fill="white" stroke="#666666" points="347.5,-862.5 197.5,-862.5 197.5,-843.5 347.5,-843.5 347.5,-862.5"/>
<text text-anchor="middle" x="272.5" y="-850.5" font-family="Helvetica,sans-Serif" font-size="10.00">ListaSensor::eliminarMenor</text>
</a>
</g>
</g>
<!-- Node1&#45;&gt;Node3 -->
<g id="edge2_Node000001_Node000003" class="edge">
<title>Node1&#45;&gt;Node3</title>
<g id="a_edge2_Node000001_Node000003"><a xlink:title=" ">
<path fill="none" stroke="#63b8ff" d="M431.79,-483.75C427.18,-552.19 408.6,-777.8 361,-829 355.21,-835.23 347.97,-839.9 340.15,-843.39"/>
<polygon fill="#63b8ff" stroke="#63b8ff" points="435.29,-483.72 432.45,-473.52 428.31,-483.27 435.29,-483.72"/>
</a>
</g>
</g>
<!-- Node4 -->
<g id="Node000004" class="node">
<title>Node4</title>
<g id="a_Node000004"><a xlink:href="classSensorTemperatura.html#a36227dc500c6f8be7866cb0f396894b3" target="_top" xlink:title="Implementación del procesamiento específico para temperatura.">
<polygon fill="white" stroke="#666666" points="132.5,-849 15.5,-849 15.5,-819 132.5,-819 132.5,-849"/>
<text text-anchor="start" x="23.5" y="-837" font-family="Helvetica,sans-Serif" font-size="10.00">SensorTemperatura::</text>
<text text-anchor="middle" x="74" y="-826" font-family="Helvetica,sans-Serif" font-size="10.00">procesarLectura</text>
</a>
</g>
</g>
<!-- Node1&#45;&gt;Node4 -->
<g id="edge16_Node000001_Node000004" class="edge">
<title>Node1&#45;&gt;Node4</title>
<g id="a_edge16_Node000001_Node000004"><a xlink:title=" ">
<path fill="none" stroke="#63b8ff" d="M431.61,-483.86C426.65,-548.8 407.54,-753.11 361,-796 328.73,-825.75 206.61,-832.57 132.78,-833.92"/>
<polygon fill="#63b8ff" stroke="#63b8ff" points="435.11,-483.97 432.36,-473.74 428.13,-483.45 435.11,-483.97"/>
</a>
</g>
</g>
<!-- Node5 -->
<g id="Node000005" class="node">
<title>Node5</title>
<g id="a_Node000005"><a xlink:href="classSensorPresion.html#ad5181690dfb24946217e882606f04428" target="_top" xlink:title="Implementación de impresión de información del sensor.">
<polygon fill="white" stroke="#666666" points="348.5,-786.5 196.5,-786.5 196.5,-767.5 348.5,-767.5 348.5,-786.5"/>
<text text-anchor="middle" x="272.5" y="-774.5" font-family="Helvetica,sans-Serif" font-size="10.00">SensorPresion::imprimirInfo</text>
</a>
</g>
</g>
<!-- Node1&#45;&gt;Node5 -->
<g id="edge4_Node000001_Node000005" class="edge">
<title>Node1&#45;&gt;Node5</title>
<g id="a_edge4_Node000001_Node000005"><a xlink:title=" ">
<path fill="none" stroke="#63b8ff" d="M430.87,-483.75C424.06,-543.27 400.87,-719.16 361,-758 357.1,-761.8 352.64,-764.91 347.83,-767.46"/>
<polygon fill="#63b8ff" stroke="#63b8ff" points="434.36,-484.09 431.98,-473.76 427.4,-483.32 434.36,-484.09"/>
</a>
</g>
</g>
<!-- Node6 -->
<g id="Node000006" class="node">
<title>Node6</title>
<g id="a_Node000006"><a xlink:href="classSensorTemperatura.html#a95a263967c5f9a55da09be3b11c27c86" target="_top" xlink:title="Implementación de impresión de información del sensor.">
<polygon fill="white" stroke="#666666" points="331,-749 214,-749 214,-719 331,-719 331,-749"/>
<text text-anchor="start" x="222" y="-737" font-family="Helvetica,sans-Serif" font-size="10.00">SensorTemperatura::</text>
<text text-anchor="middle" x="272.5" y="-726" font-family="Helvetica,sans-Serif" font-size="10.00">imprimirInfo</text>
</a>
</g>
</g>
<!-- Node1&#45;&gt;Node6 -->
<g id="edge5_Node000001_Node000006" class="edge">
<title>Node1&#45;&gt;Node6</title>
<g id="a_edge5_Node000001_Node000006"><a xlink:title=" ">
<path fill="none" stroke="#63b8ff" d="M432.92,-483.89C431.65,-529.4 422.13,-642.03 361,-705 352.86,-713.38 342.25,-719.34 331.24,-723.58"/>
<polygon fill="#63b8ff" stroke="#63b8ff" points="436.42,-483.9 433.09,-473.84 429.42,-483.78 436.42,-483.9"/>
</a>
</g>
</g>
<!-- Node7 -->
<g id="Node000007" class="node">
<title>Node7</title>
<g id="a_Node000007"><a xlink:href="classListaSensor.html#addc18bbdb7f6a09824a9afb7935ec0d6" target="_top" xlink:title="Inserta un elemento al final de la lista.">
<polygon fill="white" stroke="#666666" points="330.5,-662.5 214.5,-662.5 214.5,-643.5 330.5,-643.5 330.5,-662.5"/>
<text text-anchor="middle" x="272.5" y="-650.5" font-family="Helvetica,sans-Serif" font-size="10.00">ListaSensor::insertar</text>
</a>
</g>
</g>
<!-- Node1&#45;&gt;Node7 -->
<g id="edge6_Node000001_Node000007" class="edge">
<title>Node1&#45;&gt;Node7</title>
<g id="a_edge6_Node000001_Node000007"><a xlink:title=" ">
<path fill="none" stroke="#63b8ff" d="M430.02,-483.73C423.73,-518.4 405.8,-590.22 361,-629 352.43,-636.42 341.75,-641.57 330.84,-645.13"/>
<polygon fill="#63b8ff" stroke="#63b8ff" points="433.53,-483.94 431.73,-473.5 426.63,-482.79 433.53,-483.94"/>
</a>
</g>
</g>
<!-- Node8 -->
<g id="Node000008" class="node">
<title>Node8</title>
<g id="a_Node000008"><a xlink:href="classSensorTemperatura.html#a75a9d1899df3456b5df2b41b71551b62" target="_top" xlink:title="Registra una nueva lectura de temperatura.">
<polygon fill="white" stroke="#666666" points="132.5,-692 15.5,-692 15.5,-662 132.5,-662 132.5,-692"/>
<text text-anchor="start" x="23.5" y="-680" font-family="Helvetica,sans-Serif" font-size="10.00">SensorTemperatura::</text>
<text text-anchor="middle" x="74" y="-669" font-family="Helvetica,sans-Serif" font-size="10.00">registrarLectura</text>
</a>
</g>
</g>
<!-- Node1&#45;&gt;Node8 -->
<g id="edge18_Node000001_Node000008" class="edge">
<title>Node1&#45;&gt;Node8</title>
<g id="a_edge18_Node000001_Node000008"><a xlink:title=" ">
<path fill="none" stroke="#63b8ff" d="M433.03,-483.85C431.9,-526.66 422.49,-627.4 361,-672 291.96,-722.08 186.83,-707.21 125.11,-692"/>
<polygon fill="#63b8ff" stroke="#63b8ff" points="436.54,-483.67 433.17,-473.62 429.54,-483.57 436.54,-483.67"/>
</a>
</g>
</g>
<!-- Node9 -->
<g id="Node000009" class="node">
<title>Node9</title>
<g id="a_Node000009"><a xlink:href="classSensorPresion.html#ac4950d8215389b85dd299872b76bc5c3" target="_top" xlink:title="Registra una nueva lectura de presión.">
<polygon fill="white" stroke="#666666" points="140.5,-637 7.5,-637 7.5,-607 140.5,-607 140.5,-637"/>
<text text-anchor="start" x="15.5" y="-625" font-family="Helvetica,sans-Serif" font-size="10.00">SensorPresion::registrar</text>
<text text-anchor="middle" x="74" y="-614" font-family="Helvetica,sans-Serif" font-size="10.00">Lectura</text>
</a>
</g>
</g>
<!-- Node1&#45;&gt;Node9 -->
<g id="edge19_Node000001_Node000009" class="edge">
<title>Node1&#45;&gt;Node9</title>
<g id="a_edge19_Node000001_Node000009"><a xlink:title=" ">
<path fill="none" stroke="#63b8ff" d="M428.47,-483.85C420.49,-513.8 400.86,-569.83 361,-596 325.99,-618.99 213.76,-623 140.74,-623.04"/>
<polygon fill="#63b8ff" stroke="#63b8ff" points="431.96,-484.31 430.98,-473.76 425.17,-482.62 431.96,-484.31"/>
</a>
</g>
</g>
<!-- Node10 -->
<g id="Node000010" class="node">
<title>Node10</title>
<g id="a_Node000010"><a xlink:href="classListaSensor.html#aa57dbe9906ef12d766248270b956566d" target="_top" xlink:title="Libera toda la memoria de los nodos (método auxiliar)">
<polygon fill="white" stroke="#666666" points="343,-586.5 202,-586.5 202,-567.5 343,-567.5 343,-586.5"/>
<text text-anchor="middle" x="272.5" y="-574.5" font-family="Helvetica,sans-Serif" font-size="10.00">ListaSensor::liberarNodos</text>
</a>
</g>
</g>
<!-- Node1&#45;&gt;Node10 -->
<g id="edge9_Node000001_Node000010" class="edge">
<title>Node1&#45;&gt;Node10</title>
<g id="a_edge9_Node000001_Node000010"><a xlink:title=" ">
<path fill="none" stroke="#63b8ff" d="M424.15,-482.62C412.74,-504.51 390.75,-540.24 361,-559 355.49,-562.47 349.43,-565.29 343.16,-567.58"/>
<polygon fill="#63b8ff" stroke="#63b8ff" points="427.3,-484.15 428.64,-473.64 421.04,-481.02 427.3,-484.15"/>
</a>
</g>
</g>
<!-- Node11 -->
<g id="Node000011" class="node">
<title>Node11</title>
<g id="a_Node000011"><a xlink:href="classSistemaGestion.html#aa2380dd9f2a2cccfe1aa31c42848eb54" target="_top" xlink:title="Libera toda la memoria del sistema (llamado por el destructor)">
<polygon fill="white" stroke="#666666" points="358,-549.5 187,-549.5 187,-530.5 358,-530.5 358,-549.5"/>
<text text-anchor="middle" x="272.5" y="-537.5" font-family="Helvetica,sans-Serif" font-size="10.00">SistemaGestion::liberarSistema</text>
</a>
</g>
</g>
<!-- Node1&#45;&gt;Node11 -->
<g id="edge10_Node000001_Node000011" class="edge">
<title>Node1&#45;&gt;Node11</title>
<g id="a_edge10_Node000001_Node000011"><a xlink:title=" ">
<path fill="none" stroke="#63b8ff" d="M414.27,-480.42C400.4,-491.84 380.58,-506.62 361,-516 348.36,-522.05 333.93,-526.8 320.48,-530.42"/>
<polygon fill="#63b8ff" stroke="#63b8ff" points="416.7,-482.95 422.09,-473.83 412.19,-477.6 416.7,-482.95"/>
</a>
</g>
</g>
<!-- Node12 -->
<g id="Node000012" class="node">
<title>Node12</title>
<g id="a_Node000012"><a xlink:href="classSistemaGestion.html#a123d6dd7c90f37965ea972ccc88bd127" target="_top" xlink:title="Destructor &#45; Libera en cascada todos los sensores y nodos.">
<polygon fill="white" stroke="#666666" points="148,-536 0,-536 0,-506 148,-506 148,-536"/>
<text text-anchor="start" x="8" y="-524" font-family="Helvetica,sans-Serif" font-size="10.00">SistemaGestion::~Sistema</text>
<text text-anchor="middle" x="74" y="-513" font-family="Helvetica,sans-Serif" font-size="10.00">Gestion</text>
</a>
</g>
</g>
<!-- Node1&#45;&gt;Node12 -->
<g id="edge27_Node000001_Node000012" class="edge">
<title>Node1&#45;&gt;Node12</title>
<g id="a_edge27_Node000001_Node000012"><a xlink:title=" ">
<path fill="none" stroke="#63b8ff" d="M388.14,-476.02C379.19,-478.19 369.82,-480.3 361,-482 289.16,-495.84 206.24,-506.58 148.24,-513.25"/>
<polygon fill="#63b8ff" stroke="#63b8ff" points="389.16,-479.37 398.01,-473.56 387.47,-472.58 389.16,-479.37"/>
</a>
</g>
</g>
<!-- Node13 -->
<g id="Node000013" class="node">
<title>Node13</title>
<g id="a_Node000013"><a xlink:href="main_8cpp.html#ae66f6b31b5ad750f1fe042a706a4e3d4" target="_top" xlink:title="Función principal que simula el caso de estudio completo.">
<polygon fill="white" stroke="#666666" points="293,-473.5 252,-473.5 252,-454.5 293,-454.5 293,-473.5"/>
<text text-anchor="middle" x="272.5" y="-461.5" font-family="Helvetica,sans-Serif" font-size="10.00">main</text>
</a>
</g>
</g>
<!-- Node1&#45;&gt;Node13 -->
<g id="edge12_Node000001_Node000013" class="edge">
<title>Node1&#45;&gt;Node13</title>
<g id="a_edge12_Node000001_Node000013"><a xlink:title=" ">
<path fill="none" stroke="#63b8ff" d="M386.62,-464C355.54,-464 316.21,-464 293.06,-464"/>
<polygon fill="#63b8ff" stroke="#63b8ff" points="386.81,-467.5 396.81,-464 386.81,-460.5 386.81,-467.5"/>
</a>
</g>
</g>
<!-- Node14 -->
<g id="Node000014" class="node">
<title>Node14</title>
<g id="a_Node000014"><a xlink:href="classListaSensor.html#ae85a90201cb24deaf91831225d102c2b" target="_top" xlink:title="Muestra todos los elementos de la lista.">
<polygon fill="white" stroke="#666666" points="331,-436.5 214,-436.5 214,-417.5 331,-417.5 331,-436.5"/>
<text text-anchor="middle" x="272.5" y="-424.5" font-family="Helvetica,sans-Serif" font-size="10.00">ListaSensor::mostrar</text>
</a>
</g>
</g>
<!-- Node1&#45;&gt;Node14 -->
<g id="edge13_Node000001_Node000014" class="edge">
<title>Node1&#45;&gt;Node14</title>
<g id="a_edge13_Node000001_Node000014"><a xlink:title=" ">
<path fill="none" stroke="#63b8ff" d="M388.63,-451.88C379.52,-449.51 369.97,-447.1 361,-445 348.47,-442.06 334.86,-439.13 322.2,-436.52"/>
<polygon fill="#63b8ff" stroke="#63b8ff" points="387.74,-455.27 398.31,-454.43 389.53,-448.5 387.74,-455.27"/>
</a>
</g>
</g>
<!-- Node15 -->
<g id="Node000015" class="node">
<title>Node15</title>
<g id="a_Node000015"><a xlink:href="classSistemaGestion.html#a4e5c40bbb73aaf47aed1f064a2360f31" target="_top" xlink:title="Muestra información de todos los sensores registrados.">
<polygon fill="white" stroke="#666666" points="355.5,-399 189.5,-399 189.5,-369 355.5,-369 355.5,-399"/>
<text text-anchor="start" x="197.5" y="-387" font-family="Helvetica,sans-Serif" font-size="10.00">SistemaGestion::mostrarTodos</text>
<text text-anchor="middle" x="272.5" y="-376" font-family="Helvetica,sans-Serif" font-size="10.00">Sensores</text>
</a>
</g>
</g>
<!-- Node1&#45;&gt;Node15 -->
<g id="edge14_Node000001_Node000015" class="edge">
<title>Node1&#45;&gt;Node15</title>
<g id="a_edge14_Node000001_Node000015"><a xlink:title=" ">
<path fill="none" stroke="#63b8ff" d="M415.45,-447.11C401.65,-434.68 381.4,-418.22 361,-408 354.24,-404.61 346.94,-401.65 339.54,-399.08"/>
<polygon fill="#63b8ff" stroke="#63b8ff" points="413.44,-450.02 423.15,-454.24 418.19,-444.88 413.44,-450.02"/>
</a>
</g>
</g>
<!-- Node16 -->
<g id="Node000016" class="node">
<title>Node16</title>
<g id="a_Node000016"><a xlink:href="classSensorPresion.html#aff696aceb5e619529f911311a35d3c76" target="_top" xlink:title="Implementación del procesamiento específico para presión.">
<polygon fill="white" stroke="#666666" points="357.5,-350.5 187.5,-350.5 187.5,-331.5 357.5,-331.5 357.5,-350.5"/>
<text text-anchor="middle" x="272.5" y="-338.5" font-family="Helvetica,sans-Serif" font-size="10.00">SensorPresion::procesarLectura</text>
</a>
</g>
</g>
<!-- Node1&#45;&gt;Node16 -->
<g id="edge15_Node000001_Node000016" class="edge">
<title>Node1&#45;&gt;Node16</title>
<g id="a_edge15_Node000001_Node000016"><a xlink:title=" ">
<path fill="none" stroke="#63b8ff" d="M425.23,-445.1C414.44,-421.35 392.64,-381.16 361,-360 355.19,-356.11 348.71,-353 341.99,-350.52"/>
<polygon fill="#63b8ff" stroke="#63b8ff" points="422.09,-446.66 429.28,-454.44 428.51,-443.88 422.09,-446.66"/>
</a>
</g>
</g>
<!-- Node17 -->
<g id="Node000017" class="node">
<title>Node17</title>
<g id="a_Node000017"><a xlink:href="classSistemaGestion.html#a99af9790a5ea840d8810dbc63285a79b" target="_top" xlink:title="Ejecuta el procesamiento polimórfico de todos los sensores.">
<polygon fill="white" stroke="#666666" points="343.5,-313 201.5,-313 201.5,-283 343.5,-283 343.5,-313"/>
<text text-anchor="start" x="209.5" y="-301" font-family="Helvetica,sans-Serif" font-size="10.00">SistemaGestion::procesar</text>
<text text-anchor="middle" x="272.5" y="-290" font-family="Helvetica,sans-Serif" font-size="10.00">TodosSensores</text>
</a>
</g>
</g>
<!-- Node1&#45;&gt;Node17 -->
<g id="edge17_Node000001_Node000017" class="edge">
<title>Node1&#45;&gt;Node17</title>
<g id="a_edge17_Node000001_Node000017"><a xlink:title=" ">
<path fill="none" stroke="#63b8ff" d="M428.51,-444.43C420.43,-413.68 400.48,-354.22 361,-322 355.75,-317.72 349.8,-314.2 343.53,-311.3"/>
<polygon fill="#63b8ff" stroke="#63b8ff" points="425.17,-445.49 430.97,-454.36 431.97,-443.81 425.17,-445.49"/>
</a>
</g>
</g>
<!-- Node18 -->
<g id="Node000018" class="node">
<title>Node18</title>
<g id="a_Node000018"><a xlink:href="classSensorBase.html#a7674c56935894725090585ce565514a8" target="_top" xlink:title="Constructor con nombre del sensor.">
<polygon fill="white" stroke="#666666" points="341,-264.5 204,-264.5 204,-245.5 341,-245.5 341,-264.5"/>
<text text-anchor="middle" x="272.5" y="-252.5" font-family="Helvetica,sans-Serif" font-size="10.00">SensorBase::SensorBase</text>
</a>
</g>
</g>
<!-- Node1&#45;&gt;Node18 -->
<g id="edge20_Node000001_Node000018" class="edge">
<title>Node1&#45;&gt;Node18</title>
<g id="a_edge20_Node000001_Node000018"><a xlink:title=" ">
<path fill="none" stroke="#63b8ff" d="M431.55,-444.29C427.58,-405.44 413.05,-318.85 361,-274 355.23,-269.03 348.46,-265.26 341.29,-262.43"/>
<polygon fill="#63b8ff" stroke="#63b8ff" points="428.07,-444.66 432.44,-454.31 435.04,-444.04 428.07,-444.66"/>
</a>
</g>
</g>
<!-- Node19 -->
<g id="Node000019" class="node">
<title>Node19</title>
<g id="a_Node000019"><a xlink:href="classSensorPresion.html#a9febd6b22421efe40ba531d5137bedfd" target="_top" xlink:title="Constructor con identificador del sensor.">
<polygon fill="white" stroke="#666666" points="353,-227.5 192,-227.5 192,-208.5 353,-208.5 353,-227.5"/>
<text text-anchor="middle" x="272.5" y="-215.5" font-family="Helvetica,sans-Serif" font-size="10.00">SensorPresion::SensorPresion</text>
</a>
</g>
</g>
<!-- Node1&#45;&gt;Node19 -->
<g id="edge21_Node000001_Node000019" class="edge">
<title>Node1&#45;&gt;Node19</title>
<g id="a_edge21_Node000001_Node000019"><a xlink:title=" ">
<path fill="none" stroke="#63b8ff" d="M433.03,-444.39C431.97,-400.07 422.82,-291.76 361,-236 357.31,-232.68 353.18,-229.9 348.78,-227.59"/>
<polygon fill="#63b8ff" stroke="#63b8ff" points="429.53,-444.47 433.15,-454.43 436.53,-444.38 429.53,-444.47"/>
</a>
</g>
</g>
<!-- Node20 -->
<g id="Node000020" class="node">
<title>Node20</title>
<g id="a_Node000020"><a xlink:href="classSensorTemperatura.html#a13063a6569078d34573d3a3af703e34f" target="_top" xlink:title="Constructor con identificador del sensor.">
<polygon fill="white" stroke="#666666" points="331,-190 214,-190 214,-160 331,-160 331,-190"/>
<text text-anchor="start" x="222" y="-178" font-family="Helvetica,sans-Serif" font-size="10.00">SensorTemperatura::</text>
<text text-anchor="middle" x="272.5" y="-167" font-family="Helvetica,sans-Serif" font-size="10.00">SensorTemperatura</text>
</a>
</g>
</g>
<!-- Node1&#45;&gt;Node20 -->
<g id="edge22_Node000001_Node000020" class="edge">
<title>Node1&#45;&gt;Node20</title>
<g id="a_edge22_Node000001_Node000020"><a xlink:title=" ">
<path fill="none" stroke="#63b8ff" d="M433.8,-444.26C434.63,-395.42 429.73,-267.9 361,-199 352.88,-190.86 342.27,-185.41 331.26,-181.78"/>
<polygon fill="#63b8ff" stroke="#63b8ff" points="430.29,-444.33 433.51,-454.42 437.29,-444.52 430.29,-444.33"/>
</a>
</g>
</g>
<!-- Node21 -->
<g id="Node000021" class="node">
<title>Node21</title>
<g id="a_Node000021"><a xlink:href="classSistemaGestion.html#a6b6ea5e6632737c47ba6613b82b46357" target="_top" xlink:title="Constructor del sistema de gestión.">
<polygon fill="white" stroke="#666666" points="361,-141.5 184,-141.5 184,-122.5 361,-122.5 361,-141.5"/>
<text text-anchor="middle" x="272.5" y="-129.5" font-family="Helvetica,sans-Serif" font-size="10.00">SistemaGestion::SistemaGestion</text>
</a>
</g>
</g>
<!-- Node1&#45;&gt;Node21 -->
<g id="edge23_Node000001_Node000021" class="edge">
<title>Node1&#45;&gt;Node21</title>
<g id="a_edge23_Node000001_Node000021"><a xlink:title=" ">
<path fill="none" stroke="#63b8ff" d="M431.18,-444.21C425.08,-382.11 403.29,-192.78 361,-151 357.24,-147.29 352.94,-144.22 348.3,-141.7"/>
<polygon fill="#63b8ff" stroke="#63b8ff" points="427.71,-444.63 432.14,-454.26 434.68,-443.97 427.71,-444.63"/>
</a>
</g>
</g>
<!-- Node22 -->
<g id="Node000022" class="node">
<title>Node22</title>
<g id="a_Node000022"><a xlink:href="classSensorBase.html#af38b2b0e047cb4f0304fc4c204c420fa" target="_top" xlink:title="Destructor virtual (crítico para polimorfismo)">
<polygon fill="white" stroke="#666666" points="345,-104.5 200,-104.5 200,-85.5 345,-85.5 345,-104.5"/>
<text text-anchor="middle" x="272.5" y="-92.5" font-family="Helvetica,sans-Serif" font-size="10.00">SensorBase::~SensorBase</text>
</a>
</g>
</g>
<!-- Node1&#45;&gt;Node22 -->
<g id="edge24_Node000001_Node000022" class="edge">
<title>Node1&#45;&gt;Node22</title>
<g id="a_edge24_Node000001_Node000022"><a xlink:title=" ">
<path fill="none" stroke="#63b8ff" d="M431.75,-444.45C427.1,-377.74 408.49,-160.52 361,-113 356.4,-108.39 350.95,-104.81 345.05,-102.05"/>
<polygon fill="#63b8ff" stroke="#63b8ff" points="428.26,-444.72 432.43,-454.46 435.25,-444.25 428.26,-444.72"/>
</a>
</g>
</g>
<!-- Node23 -->
<g id="Node000023" class="node">
<title>Node23</title>
<g id="a_Node000023"><a xlink:href="classSensorPresion.html#aa82718b7990902c257ebcd0234e1ed46" target="_top" xlink:title="Destructor.">
<polygon fill="white" stroke="#666666" points="357,-67.5 188,-67.5 188,-48.5 357,-48.5 357,-67.5"/>
<text text-anchor="middle" x="272.5" y="-55.5" font-family="Helvetica,sans-Serif" font-size="10.00">SensorPresion::~SensorPresion</text>
</a>
</g>
</g>
<!-- Node1&#45;&gt;Node23 -->
<g id="edge25_Node000001_Node000023" class="edge">
<title>Node1&#45;&gt;Node23</title>
<g id="a_edge25_Node000001_Node000023"><a xlink:title=" ">
<path fill="none" stroke="#63b8ff" d="M432.14,-443.82C428.65,-371.84 413.15,-129.17 361,-76 357.74,-72.68 354.05,-69.89 350.06,-67.55"/>
<polygon fill="#63b8ff" stroke="#63b8ff" points="428.66,-444.36 432.61,-454.19 435.65,-444.04 428.66,-444.36"/>
</a>
</g>
</g>
<!-- Node24 -->
<g id="Node000024" class="node">
<title>Node24</title>
<g id="a_Node000024"><a xlink:href="classSensorTemperatura.html#aaeb0f7948069eb57dc05170414c47b12" target="_top" xlink:title="Destructor.">
<polygon fill="white" stroke="#666666" points="332,-30 213,-30 213,0 332,0 332,-30"/>
<text text-anchor="start" x="221" y="-18" font-family="Helvetica,sans-Serif" font-size="10.00">SensorTemperatura::</text>
<text text-anchor="middle" x="272.5" y="-7" font-family="Helvetica,sans-Serif" font-size="10.00">~SensorTemperatura</text>
</a>
</g>
</g>
<!-- Node1&#45;&gt;Node24 -->
<g id="edge26_Node000001_Node000024" class="edge">
<title>Node1&#45;&gt;Node24</title>
<g id="a_edge26_Node000001_Node000024"><a xlink:title=" ">
<path fill="none" stroke="#63b8ff" d="M432.38,-444.02C429.62,-368.25 416.05,-99.84 361,-39 353.39,-30.59 343.14,-25.01 332.34,-21.34"/>
<polygon fill="#63b8ff" stroke="#63b8ff" points="428.9,-444.59 432.73,-454.47 435.89,-444.35 428.9,-444.59"/>
</a>
</g>
</g>
<!-- Node3&#45;&gt;Node4 -->
<g id="edge3_Node000003_Node000004" class="edge">
<title>Node3&#45;&gt;Node4</title>
<g id="a_edge3_Node000003_Node000004"><a xlink:title=" ">
<path fill="none" stroke="#63b8ff" d="M187.34,-844.86C168.92,-843.08 149.82,-841.23 132.71,-839.58"/>
<polygon fill="#63b8ff" stroke="#63b8ff" points="187.2,-848.37 197.49,-845.84 187.88,-841.4 187.2,-848.37"/>
</a>
</g>
</g>
<!-- Node7&#45;&gt;Node8 -->
<g id="edge7_Node000007_Node000008" class="edge">
<title>Node7&#45;&gt;Node8</title>
<g id="a_edge7_Node000007_Node000008"><a xlink:title=" ">
<path fill="none" stroke="#63b8ff" d="M204.24,-661.21C180.94,-664.06 155.04,-667.22 132.58,-669.97"/>
<polygon fill="#63b8ff" stroke="#63b8ff" points="204.9,-664.66 214.4,-659.97 204.05,-657.71 204.9,-664.66"/>
</a>
</g>
</g>
<!-- Node7&#45;&gt;Node9 -->
<g id="edge8_Node000007_Node000009" class="edge">
<title>Node7&#45;&gt;Node9</title>
<g id="a_edge8_Node000007_Node000009"><a xlink:title=" ">
<path fill="none" stroke="#63b8ff" d="M204.45,-642.42C183.8,-639.16 161.1,-635.58 140.55,-632.34"/>
<polygon fill="#63b8ff" stroke="#63b8ff" points="203.98,-645.89 214.4,-643.99 205.07,-638.98 203.98,-645.89"/>
</a>
</g>
</g>
<!-- Node11&#45;&gt;Node12 -->
<g id="edge11_Node000011_Node000012" class="edge">
<title>Node11&#45;&gt;Node12</title>
<g id="a_edge11_Node000011_Node000012"><a xlink:title=" ">
<path fill="none" stroke="#63b8ff" d="M176.73,-530.84C167.1,-529.9 157.42,-528.97 148.06,-528.06"/>
<polygon fill="#63b8ff" stroke="#63b8ff" points="176.45,-534.33 186.74,-531.8 177.12,-527.36 176.45,-534.33"/>
</a>
</g>
</g>
</g>
</svg>

<g id="navigator" transform="translate(0 0)" fill="#404254">
  <rect fill="#f2f5e9" fill-opacity="0.5" stroke="#606060" stroke-width=".5" x="0" y="0" width="60" height="60"/>
  <use id="zoomplus" xlink:href="#zoomPlus" x="17" y="9" onmousedown="handleZoom(evt,'in')"/>
  <use id="zoomminus" xlink:href="#zoomMin" x="42" y="9" onmousedown="handleZoom(evt,'out')"/>
  <use id="reset" xlink:href="#resetDef" x="30" y="36" onmousedown="handleReset()"/>
   <use id="arrowup" xlink:href="#arrowUp" x="0" y="0" onmousedown="handlePan(0,-1)"/>
  <use id="arrowright" xlink:href="#arrowRight" x="0" y="0" onmousedown="handlePan(1,0)"/>
  <use id="arrowdown" xlink:href="#arrowDown" x="0" y="0" onmousedown="handlePan(0,1)"/>
  <use id="arrowleft" xlink:href="#arrowLeft" x="0" y="0" onmousedown="handlePan(-1,0)"/>
</g>
<svg viewBox="0 0 15 15" width="100%" height="30px" preserveAspectRatio="xMaxYMin meet">
 <g id="arrow_out" transform="scale(0.3 0.3)">
  <a xlink:href="structNodo_a96da8b61d6884126bb04fced32542df9_icgraph_org.svg" target="_base">
   <rect id="button" ry="5" rx="5" y="6" x="6" height="38" width="38"
        fill="#f2f5e9" fill-opacity="0.5" stroke="#606060" stroke-width="1.0"/>
   <path id="arrow"
     d="M 11.500037,31.436501 C 11.940474,20.09759 22.043105,11.32322 32.158766,21.979434 L 37.068811,17.246167 C 37.068811,17.246167 37.088388,32 37.088388,32 L 22.160133,31.978069 C 22.160133,31.978069 26.997745,27.140456 26.997745,27.140456 C 18.528582,18.264221 13.291696,25.230495 11.500037,31.436501 z"
     style="fill:#404040;"/>
  </a>
 </g>
</svg>

<style type='text/css'>
<![CDATA[
[data-mouse-over-selected='false'] { opacity: 0.7; }
[data-mouse-over-selected='true']  { opacity: 1.0; }
]]>
</style>
<script type="application/ecmascript"><![CDATA[
document.addEventListener('DOMContentLoaded', (event) => {
  highlightEdges();
  highlightAdjacentNodes();
});
]]></script>
</svg>
